<svg id="Layer_1" data-name="Layer 1" xmlns="http://www.w3.org/2000/svg" viewBox="0 0 293.43 193.7"><defs><style>.cls-1{fill:#fff;fill-rule:evenodd;}</style></defs><path class="cls-1" d="M224.63,177.92c1.57,0,3.05-.07,4.53-.14a4,4,0,0,0,1.06-.25c.64-.24.64-.26,1,.1a11.59,11.59,0,0,0,1.46,0,8.84,8.84,0,0,0,1.41-.36c.43-.13.81-.77,1.32-.15.83-.61,1.47.31,2.19.26a5.55,5.55,0,0,0,1.57-.55c.13,0,.26-.3.33-.27.62.2,1.13-.19,1.68-.25a17.75,17.75,0,0,1,3.17.1,19.39,19.39,0,0,1,2,.36l-1.85,1.87,1.37.35c-.27.42-.27.42-2.1.64l.71.67-.2.16-.7.64c.31.16.61.33.92.48a5.22,5.22,0,0,0,.56.18,2.23,2.23,0,0,1,0,.23,4,4,0,0,1-1,.23,16.59,16.59,0,0,0-2-.09,1.61,1.61,0,0,1-1.72-1.07,1.24,1.24,0,0,0-1.77-.59l-1.31.51c-.58.23-1,.58-.91,1.29,0,.47-.22.64-.66.68-2.45.22-4.89.48-7.34.66-1.06.08-2.13,0-3.21,0-.23-.49-.46-1-.69-1.51-.15,0-.4,0-.48-.09-.37-.43-.73-.67-1.26-.11.11.33.24.75.38,1.16l.19,0c0-.17.07-.33.1-.5h.13c.05.36.09.72.15,1.16a5.39,5.39,0,0,1-.61-.07,13.87,13.87,0,0,1-2.92-.59c-1.85-.81-3.86-.3-5.72-.88-.57-.18-.67-.41-.54-.88a7.6,7.6,0,0,1,.46-1.42c.6-1.24.41-2.6.54-3.88a13.12,13.12,0,0,1,1.71-4.85,15.77,15.77,0,0,0,1.91-6.57c0-.38.12-.77.16-1-.47-.06-1.17,0-1.3-.22a3.06,3.06,0,0,1-.15-1.55,10,10,0,0,0,.24-1.38,10.63,10.63,0,0,1,1-4.88c.61-1.55,1.32-3.06,2-4.66-.37-.24-.82-.51-.29-1.33.24-.38-.14-1.16-.23-1.77a2.67,2.67,0,0,1-.06-.84,45.63,45.63,0,0,0,1.19-5.92c.15-2.24,1.22-4.15,1.72-6.25s1-4.27,1.39-6.43c.33-1.85.41-3.74.7-5.59.22-1.42.61-2.82.91-4.22,0-.2.06-.41.09-.61l-6.78,2.67c-.45-.42-.22-1.43-1-1.8l-2.36,2.48,1.59.87a22.65,22.65,0,0,1-1.59,1.64c-.39.32-1.06,0-1-.42.13-.87.34-1.72.52-2.65a2.88,2.88,0,0,1-.53-2.6c.18-1,.49-1.82,1.65-2a7.92,7.92,0,0,0-1.29,0,.7.7,0,0,0-.48.41c-.24.71-.4,1.45-.64,2.17s-.49,1.38-.65,1.81a8,8,0,0,0-1.8.82c-1.3,1.08-2.53,2.24-3.78,3.37a2.39,2.39,0,0,0,.13.21l5.12-3.06c-.06,2.94-.16,5.9-.16,8.85,0,4.59.14,9.19,0,13.78s-.48,9-.63,13.52c-.11,3.22-.09,6.45-.06,9.67,0,2.9.19,5.8.18,8.7a37.15,37.15,0,0,1-.41,4.46.83.83,0,0,0,.6,1.06,27.5,27.5,0,0,1,2.62,1.4,3.65,3.65,0,0,0,.55.29c.4.13,1,.09,1.19.35a14.09,14.09,0,0,1,1.32,2c-1.13.51-1.39.36-1.42-.71-.3.15-.68.21-.79.42-.41.73-.94.25-1.06,0-.23-.48-.5-.74-1-.58a1,1,0,0,0-.78,1.17c0,.07,0,.14-.06.28-.24-.11-.45-.19-.65-.3s-.38-.28-.62-.46A1.58,1.58,0,0,1,210,186c-1.1-.34-2.19-.7-3.29-1-.9-.27-1.82-.46-2.72-.76-.63-.21-1.21-.55-1.83-.81-.31-.13-.63-.22-1-.34a9.86,9.86,0,0,0-.11,3.93q.07,2.11.06,4.23c0,.6-.16,1.19-.17,1.79s-.53.76-.92.7a1.28,1.28,0,0,1-.85-.7,15,15,0,0,1-.44-2.13c-.54-.21-1.12-.26-1.23-.51-.22-.54-.75-1.16-.08-1.79.13-.11.11-.38.14-.58a6.52,6.52,0,0,0-.78-3.59,3.7,3.7,0,0,1-.14-.82,10.74,10.74,0,0,0-.55-2.75,22.37,22.37,0,0,1-1.77-6.89,16.67,16.67,0,0,0-1.11-4.21c-.73-1.77-1-3.72-1.63-5.56-.68-2.11-1.47-4.18-2.21-6.27a32.28,32.28,0,0,0-1.34-3.31c-.19,1.57-.34,3.14-.56,4.7a58,58,0,0,0-.52,10.2q.15,4.08,0,8.16c-.08,2-.41,3.91-.63,5.86a5.6,5.6,0,0,1-.11,1.09,8.32,8.32,0,0,1-.68,1.41c-.32.57-.74,1.09-1,1.69s-.5,1.42-.79,2.12a.72.72,0,0,1-.52.34c-.16,0-.37-.2-.48-.37-1.18-1.81-1.11-3.86-1.07-5.89a2,2,0,0,0-1.14-2,.67.67,0,0,1-.17-1.19c.35-.35.66-.74,1-1.1l-1-.5a3.87,3.87,0,0,1,.74-.85c.74-.44.07-1,.28-1.55-.68,0-.8-.33-.82-.92a24.49,24.49,0,0,1,.33-4.75,43.64,43.64,0,0,0,.07-6.38c-.75-.09-.92-.62-.87-1.37.13-1.91.26-3.82.28-5.73s-.09-4-.1-6a2.4,2.4,0,0,0-1.11-2.18c-.13-.08-.25-.18-.16-.35a11.17,11.17,0,0,0,.08-1.29c-.07-1.49-.23-3-.24-4.47s0-3.13-1.46-4.25a1.14,1.14,0,0,1-.23-1.06c1.23-3.12.93-6.36.67-9.56-.17-2.23-.75-4.43-1.13-6.64-.15-.85-.23-1.72-.39-2.57-.13-.66-.35-1.3-.49-2s-.19-1.18-.29-1.76c0-.35-.1-.69-.16-1h-.2s0-.12.07-.13c.94-.2,1.16-.69,1-1.66a32,32,0,0,1-.22-3.68c0-.73-.16-1.46-.18-2.19,0-1.25,0-2.5,0-3.74,1-.1,1-.1,2.5.64.24,0,.55-.14.72,0a2.54,2.54,0,0,0,2.79.09c.85-.49,1-.23,1.46.72a2.8,2.8,0,0,0,1.29,1.15,35.77,35.77,0,0,0,3.61,1.52,7.74,7.74,0,0,0,1.7.21c-.16-.68,0-1.25-.63-1.75-.39-.33-.48-1-.65-1.45-.43,0-.9.23-1.21.09a1.63,1.63,0,0,1-.65-1c-.22-.83-.29-1.7-.5-2.54s-.6-1.65-.79-2.5a18.72,18.72,0,0,1-.3-2.37q-.28-2.93-.54-5.85c-.16-1.9-.29-3.81-.47-5.72-.22-2.4-.5-4.79-.71-7.19-.19-2.13-.33-4.25-.47-6.38,0-.42,0-.85,0-1.4l.65-.23c0-.67-.31-.86-1.11-.73-.09-1.78-.18-3.52-.26-5.26-.05-1.15-.06-2.31-.15-3.45,0-.22-.31-.41-.45-.63-.27-.38-.71-.76-.74-1.16-.16-1.84-.19-3.69-.3-5.53,0-.32-.23-.61-.27-.93-.3-2.52-.58-5-.86-7.55-.11-.94-.24-1.87-.3-2.82-.09-1.64-.12-3.29-.18-4.93-.17-4-.31-8-.52-12,0-1.07-.41-2.11-.43-3.17-.05-2,0-4.07.08-6.1.78-.79-.06-1.75.32-2.66.18.07.49.08.54.21.53,1.29,2.23,2,1.82,3.75a.76.76,0,0,0,.21.67V15.41a1.09,1.09,0,0,1,1.07,1.15c.1,1.33,0,2.67.12,4a25.94,25.94,0,0,0,2.11,8.66c.71,1.68,1.56,3.32,2.2,5,1,2.74,2,5.5,2.82,8.3,1.7,5.72,3.29,11.47,4.92,17.21.38,1.36.75,2.73,1.08,4.1a3.4,3.4,0,0,1,0,1,.5.5,0,0,0,0,.3,7.92,7.92,0,0,1,1.22,4.28c.17,2.18,1.34,4.06,1.63,6.19.06.45.17.9.26,1.35h.28c0-1.15,0-2.3,0-3.45.06-2.13.16-4.27.23-6.41,0-.93,0-1.87,0-2.81s0-1.62.08-2.42c.24-3,.52-6,.74-9,.15-2.16.23-4.33.33-6.49,0-.68,0-.68-.68-.88,0-1.12,0-1.12.65-1.2v-.92c-.5.5-.5.5-1.3-.93l.88-.73c.06.51.09.85.13,1.21l1.81-.5c-.17-.33-.34-.63-.5-.93l.15-.09a3.8,3.8,0,0,0,.88.48c.18.05.42-.13.64-.21l-.66-.32c-.06,0-.14,0-.17,0l-.27-.9-1.11.57-.14-.18.18-.3c-.77-.29-.46-1-.46-1.45,0-4.45.08-8.91.19-13.36.06-2.43.28-4.87.38-7.3.06-1.54-.05-3.09.07-4.62a40.73,40.73,0,0,1,.73-4.58c.3.57.47,1.21,1.33,1,.15.72.28,1.38.45,2.21.55-1,1.08-1.21,1.4-.77a5,5,0,0,1,.59,1.34c.77,2.6.59,5.3.92,8a23.23,23.23,0,0,0,2.58,7.93,36.86,36.86,0,0,1,2.27,6.1c.16.52-.21,1.2-.33,1.81-.05.24-.09.49-.14.75,1.6,0,1.58,0,1.81,1.73a44.28,44.28,0,0,0,.88,4.39c.69,2.9,1.41,5.79,2.14,8.68.2.8.48,1.58.71,2.37a1,1,0,0,1-.56,1.23c-.75.32-.73.85-.56,1.49.37,1.48.79,3,1.07,4.46.55,2.91,1,5.84,1.49,8.76.41,2.61.65,5.26,1.2,7.84.66,3.12,1.66,6.17,2.33,9.29a34.19,34.19,0,0,1,.43,5.28c0,.32-.29.67-.43,1a1.63,1.63,0,0,0-.23.62c0,1.28.15,2.55.2,3.83a16.2,16.2,0,0,1,0,2c-.07.88-.24,1.75-.29,2.63s0,1.73,0,2.59c-.15,1.58-.32,3.17-.58,4.74a2.49,2.49,0,0,0,.51,2.49l2.22-1.82c.26.48.47.89.68,1.29,1.39-.46,1.56-.88,1-2.21a1.28,1.28,0,0,1,0-1c1-1.49,2-3,3.1-4.4a2.43,2.43,0,0,1,1.86-1,3.86,3.86,0,0,0,1.08-.46,5.48,5.48,0,0,1,1.1-.37,1,1,0,0,1,1.19,1c.05,3.48.19,7,.11,10.44a74.52,74.52,0,0,1-.65,7.75c-.53,4-1.18,8.06-1.79,12.09-.51,3.37-1.09,6.72-1.53,10.09-.23,1.74-.14,3.52-.35,5.26-.24,2.07-.71,4.11-1,6.18a38.89,38.89,0,0,0-.31,4.94,24.06,24.06,0,0,1-1.34,7.53c-.4,1.28-.88,2.52-1.33,3.78a7.09,7.09,0,0,0-.38,4.07C224.5,176.67,224.55,177.38,224.63,177.92Zm-25-71a3.42,3.42,0,0,1,3.38.81,4,4,0,0,0,1.8.87c1.46.26,2.92.55,4.35.93,1.16.31,2.29.78,3.44,1.16a2.5,2.5,0,0,0,.47.05c1.36.26,2.72.53,4.08.77.53.1,1.07.14,1.73.23-.56-1.22-1-2.23-1.48-3.21-.8-1.58-1.89-3-2.21-4.82-.07-.37-.61-.77-1-.92a2,2,0,0,1-1.24-1.1,38.25,38.25,0,0,1-2.36-7.31c-.32-1.5-.86-3-1.32-4.42s-1.08-3.13-1.44-4.73c-.29-1.29-.23-2.65-.86-3.88a3.35,3.35,0,0,1-.28-1.14c-.24-1.85-.44-3.69-.69-5.54-.15-1.08-.44-2.15-.56-3.24-.18-1.58-.27-3.17-.4-4.76h-.29c-.1.81-.18,1.62-.29,2.42-.19,1.43-.41,2.86-.58,4.29-.25,2.18-.41,4.38-.73,6.55-.17,1.24-.71,2.43-.84,3.67-.22,2-.23,4-.35,6a11.79,11.79,0,0,1-.18,1.23c-1-.64-.54-1.59-.69-2.42l.48-.61c-.37-.84-.72-1.6-1.06-2.37-.19.42-.38.79-.52,1.18-.37,1-1.45,1.65-1.23,2.88,0,.06-.12.17-.2.21l-2.2.84c-.14-.57-.34-1.3-.5-2-.12-.56-.15-1.14-.28-1.7-.36-1.53-.8-3-1.12-4.57-.55-2.61-.76-5.28-1.74-7.8-.85-2.19-1.52-4.46-2.33-6.66a32.63,32.63,0,0,1-2.19-7.36,2.17,2.17,0,0,0-.19-.54c0,2,.06,4.07.24,6.08.33,3.48.72,6.95,1.1,10.42.25,2.31.55,4.61.79,6.92.22,2,.42,4.11.58,6.16q.28,3.45.51,6.89a35.17,35.17,0,0,0,1,7.07,12.46,12.46,0,0,1,.38,2.86,8.84,8.84,0,0,1-.31,1.88,9.05,9.05,0,0,1,6.4,1.71l1.21-1-1.7-.62,0-.26,1.92-.31Zm-.25,4.1c1.84,2.18,2,4.75,2.08,7.33,0,1-.21,2.11-.22,3.16,0,1.67.07,3.35.11,5q.15,5.2.28,10.39a8.64,8.64,0,0,1-1.78,5.73c-.61.78-1.23,1.55-1.69,2.13.07.7.29,1.61.14,1.67-.76.33-.66-.52-1-.91l-.79.24c.46.84.92,1.63,1.31,2.45.08.17-.13.47-.21.72-.21-.17-.49-.3-.62-.52-.41-.71-.78-1.45-1.24-2.33a5.64,5.64,0,0,1-1,1.13.7.7,0,0,0-.35,1c.81,2.89,1.57,5.81,2.45,8.68.59,1.92,1.38,3.77,2.06,5.66a32.1,32.1,0,0,1,2.05,9.37s0,0-.08.06a2.74,2.74,0,0,1-.42.21c-1.56.73-1.64,1.11-.43,2.38a2.66,2.66,0,0,1,.77,1.8c.07,1.2.18,2.39.28,3.67l3.83.52a13.53,13.53,0,0,0,1.09-6.08c0-2.57,0-5.14,0-7.71,0-2.09.16-4.18.24-6.27-1.06-.12-1.12-.2-1-1.23a4.84,4.84,0,0,1,.14-.61,10,10,0,0,0,.42-1.82c.08-2.17.08-4.34.12-6.51s.1-4.13.13-6.2a1.05,1.05,0,0,0-.26-.69,1.35,1.35,0,0,1-.29-1.7,7.75,7.75,0,0,0,.57-3.46c0-.55-.09-1.1-.07-1.65.11-2.32.27-4.65.37-7,0-.88,0-1.77,0-2.65,0-.49.09-1,.12-1.48.16-2.56.33-5.12.45-7.68,0-.85.26-1.93-.15-2.52a7.36,7.36,0,0,0-2.59-2,11.77,11.77,0,0,1-3.21-2.43ZM188.13,141.4a9.13,9.13,0,0,0,4.56-4.55c1.46-2.86,1.5-6.07,1.75-9.18a42.09,42.09,0,0,0-.19-6c-.11-1.67-.27-3.34-.51-5a3.16,3.16,0,0,0-2.93-2.53,10.35,10.35,0,0,1-2.63-.6c-.93-.33-1.79-.83-2.75-1.28a8.7,8.7,0,0,0,0,1.45,22.43,22.43,0,0,1,.64,6.06,5.56,5.56,0,0,0,.17,1.61c.26,1.54.55,3.07.85,4.61,0,.18.11.46.24.51.79.33.92,1.1,1.23,1.75,0,0,0,.14,0,.24l-.49-.22-.16.39c-.32.66-.72,1.31.08,2a.93.93,0,0,1-.07.83c-.73.32-.55,1-.52,1.47C187.56,135.66,187.86,138.44,188.13,141.4Zm7.68-62.91a6.86,6.86,0,0,1-.67.56.81.81,0,0,0-.26,1.14,3,3,0,0,0,.57,1.08,1.8,1.8,0,0,0,1.23.51c.37,0,.74-.46,1-.78s.14-.62.34-.75a2.56,2.56,0,0,0,1.07-2,1.32,1.32,0,0,0-.06-.39,2.11,2.11,0,0,0-.38.17c-.22.14-.59.48-.64.43a3.75,3.75,0,0,0-2.23-.53l-.7-.06a1,1,0,0,0,0,.17ZM212.54,115c-.25-.41-.57-.78-.5-.88a4.24,4.24,0,0,1,.91-.81,4.15,4.15,0,0,1-1.26-.12,4.65,4.65,0,0,1-1-.83c.4.77.74,1.5,1.15,2.2C211.94,114.74,212.24,114.82,212.54,115Zm-13.62,6.14,1.26-1.6C199.13,119.19,198.83,119.56,198.92,121.13ZM197.69,135a5.06,5.06,0,0,0-.88-.77c-.05,0-.52.39-.49.53a1.4,1.4,0,0,0,.57.76C197,135.56,197.33,135.22,197.69,135Zm19.15-36.31-.28.21.54,1.31.28-.06c.12-.29.25-.58.4-.95ZM201.48,76.4l-.12.32.86.5c.13-.33.25-.65.37-1l-.19-.14ZM185,54.3l-.17-.3-1.19.44a1.18,1.18,0,0,1,.07.2l.88.37Zm.46,22.88,1.15-.62-1-.51C185.51,76.47,185.49,76.69,185.45,77.18Zm24.64-30.66-.76-.94h-.19l.14,1.5Zm7.81,29c0-.11,0-.21,0-.32l-.88-.13v.88l.26,0ZM207,44.73l.26.25c.23-.15.57-.26.64-.47s-.23-.43-.36-.65ZM189,82.58h.48l.09-1c-.21,0-.59,0-.6.1A3.64,3.64,0,0,0,189,82.58Zm2.4,25.18c-.15-.64-.28-1.22-.42-1.8a4.75,4.75,0,0,0-.1,1C190.81,107.56,190.8,107.56,191.35,107.76ZM203,41.11c0-.32,0-.59,0-.84l-.69,0C202.37,40.69,202.19,41.28,203,41.11Z"/><path class="cls-1" d="M145.72,104.51a2.35,2.35,0,0,1,.36-.46c.35-.22.75-.6,1.09-.56s.64.55.72.9c.18.89.2,1.81.32,2.71s.3,1.59.38,2.4.06,1.71.09,2.57l.06,2.51H149q.12-6.54.26-13.08l.3-.09c.15.18.39.34.44.54a15.06,15.06,0,0,1,.47,2.48c.05.8-.13,1.62-.15,2.43a9.21,9.21,0,0,0,.17,1c.15,1.53.29,3,.4,4.57.17,2.31.36,4.63.44,7,.07,1.86,0,3.74-.05,5.61,0,.76.06,1.52.12,2.27a78.45,78.45,0,0,0,1.39,11.11c.41,1.74.45,3.57.71,5.35s.54,3.4.85,5.09c.08.43,0,.66-.4.79s-.49.41-.47.85c.19,3.53.41,7.06.5,10.59.06,2.56.35,5.1.54,7.64a6.14,6.14,0,0,0,1,3.18c-.07.07-.15.22-.25.23-1.06.17-1.19.86-1.06,1.76s.16,1.61.23,2.46l-.73.28.22.08a29,29,0,0,1-1,3.08c-.11.25-.81.25-1.25.37-.23.72-.5,1.58-.79,2.43,0,.07-.17.09-.37.19-.39-2.1-.77-4.14-1.15-6.2-1,0-1.09,0-1.23-1.19-.18-1.61-.2-3.24-.37-4.85-.32-3.05-.7-6.08-1-9.12-.11-.94-.16-1.88-.23-2.83a6.07,6.07,0,0,0-1.35-3.52,18.4,18.4,0,0,1-1-1.62,36.18,36.18,0,0,0-3.58-.87,23.74,23.74,0,0,0-3.27-.06h-3.1c.08,1,.17,2.09.28,3.32.22-.12.35-.18.47-.26.48-.32.76-.16.79.38.06,1.35.09,2.71.12,4.07a.43.43,0,0,1-.13.34c-.78.27-.5.88-.4,1.37a9.33,9.33,0,0,0,.64,2c.51,1.09.53,1.16-.34,1.65.08,2,.12,4,.27,5.9a16,16,0,0,0,.56,2.11c.44,2,.88,4,1.25,6,.1.59-.45.79-.94.81a3.6,3.6,0,0,1-.93-.23c.12,1.08.24,2.18.36,3.28,0,.15.08.34,0,.46a5.6,5.6,0,0,1-.49.68c-.21-.21-.55-.38-.61-.63-.3-1.1-.5-2.23-.77-3.34a8.35,8.35,0,0,0-.45-1.07h-.29c0,.78,0,1.56,0,2.34a7.68,7.68,0,0,1,.16,1.23c0,.28-.38.51-.59.76a6.63,6.63,0,0,1-.61-.57c-.21-.27-.37-.57-.55-.85l-.25.09c0,.27,0,.53,0,.79.09,1.07.18,2.14.3,3.21.05.48.07.9-.49,1.07s-.77-.21-1-.63c-1-1.83-2-3.65-3.1-5.54a4.65,4.65,0,0,1-.47.56.74.74,0,0,1-1.28-.35c-.17-.58-.26-1.18-.4-1.77-.06-.27-.16-.53-.27-.91-.16.19-.22.31-.32.37-.31.18-.66.5-1,.45a1.43,1.43,0,0,1-.9-.69,17.2,17.2,0,0,1-.93-2.21,2.62,2.62,0,0,1-.19-1q.17-5.3.35-10.61a1.1,1.1,0,0,1,.24-.7c.06.23.12.46.19.69a1,1,0,0,0-.11-1.35,1.09,1.09,0,0,1-.3-.57c-.13-2.15-.25-4.3-.31-6.45-.1-3.42-.1-6.85-.24-10.28-.08-1.88-.33-3.76-.54-5.63a.71.71,0,0,0-.35-.52.93.93,0,0,1-.72-1.12c.11-1.69.16-3.39.3-5.09a3.06,3.06,0,0,0-.94-2.37,5.36,5.36,0,0,1-.32-.47c.74-.06,1.36-.08,2-.16a.94.94,0,0,0,.65-.34,2.5,2.5,0,0,0,.2-1.06c0-.64-.49-.79-1.22-.5-.22-1.44-.46-2.91-.64-4.38a1.73,1.73,0,0,1,.2-1.08c.48-.69,1.33-1.14,1.31-2.14,0-.07.19-.15.17-.13a26.56,26.56,0,0,1-.53-2.78q-.25-3.14-.34-6.29a43.21,43.21,0,0,1,.1-4.83c0-.34.74-.71,1.21-.88s.73.13.76.66c0,.19.21.38.45.51.08-1.69.17-3.38.25-5.08l-1.13-.37a4.46,4.46,0,0,1-.12.87c-.09.24-.28.64-.43.64a1,1,0,0,1-.78-.39,20.85,20.85,0,0,0-1.72-2.86,6.35,6.35,0,0,1-.77-2.91c-.21-1.5-.17-3-.45-4.51a26.36,26.36,0,0,0-1.54-6c-.6-1.33-1.06-2.68-1.55-4a2.69,2.69,0,0,0-1.06-1.62,1.64,1.64,0,0,1-.46-1.52,2.91,2.91,0,0,0-.08-2.12c-.38-1.46-.8-2.92-1.15-4.39-.1-.39-.21-.62-.63-.73-.89-.22-1-.54-.91-1.49.08-1.41,0-2.83,0-4.25a13.55,13.55,0,0,0-.08-1.8c-.14-.86.32-1.31,1.13-1.57l-.14-.19-.93.12c-.7-4-.76-8.18-1.86-12.15h-.26c-.16,1.22-.33,2.44-.48,3.66-.37,3-.78,6-1.08,9.06-.2,2-.2,4.08-.37,6.12-.2,2.24-.52,4.47-.73,6.71-.26,2.85-.39,5.71-.72,8.54-.25,2.11-.73,4.18-1.1,6.27-.42,2.34-.88,4.68-1.23,7-.22,1.5-.24,3-.43,4.54-.16,1.32-.42,2.63-.66,3.94a1.09,1.09,0,0,1-.29.55.77.77,0,0,1-.58.23.64.64,0,0,1-.41-.45c-.1-.49-.12-1-.18-1.49-1,.4-1.3.27-1.3-.84s.16-2.45.25-3.67a.65.65,0,0,0-.17-.53,4.86,4.86,0,0,1-.14.93,2,2,0,0,1-.38.57c-.2-.19-.56-.37-.58-.57a6.64,6.64,0,0,1,.18-1.23c.26-2.63.52-5.27.77-7.9.3-3.23.62-6.45.89-9.69.21-2.67.35-5.34.54-8,.1-1.53.22-3.06.33-4.66l1.25.58a2.15,2.15,0,0,0-.93-1.76c-.11-.07-.08-.38-.07-.58.25-2.6.56-5.2.74-7.81s.2-4.93.29-7.39c.07-2,.14-4,.21-6.2a7.94,7.94,0,0,0,1.27,1.38,3.26,3.26,0,0,1,1.29,1.65c.59,1.49,1.91,1.77,3,.57a3,3,0,0,0,.25-2,9.06,9.06,0,0,0-.68-2,1.33,1.33,0,0,0-1.62-.82c-.47.1-1,0-1.46.13a6.76,6.76,0,0,0-1.28.46,4,4,0,0,0-.61.39,151.11,151.11,0,0,1,3.43-27.37l1,1.22c0-1,.09-2.05.16-3.1,0-.19.18-.36.27-.54.16.17.44.33.46.51.15,1.48.24,3,.39,4.45a8.66,8.66,0,0,0,.36,1.3l.33,0,.63-5.82.34,0c.73,1.78.77,3.72,1.16,5.65l2,.12c.38,2.72.73,5.59,1.18,8.44.35,2.19.81,4.37,1.27,6.54a1.73,1.73,0,0,0,.55.87A4.24,4.24,0,0,1,117,42.17a116.85,116.85,0,0,0,2.86,14.38c.88,3.8,1.59,7.64,2.41,11.46a54.26,54.26,0,0,0,2.54,9.45,3.14,3.14,0,0,0,.23.46c-.14-3.73-.26-7.3-.39-10.9l1.34-.24-.73-.66.18-.75c-1-.11-1.2-.84-1.33-1.64s-.38-1.89-.55-2.85a1.65,1.65,0,0,1,.55-1.88c.27-.21.22-.91.24-1.38,0-.66-.06-1.32,0-2s.15-1.3-.64-1.66a.77.77,0,0,1-.26-.61c.08-1.41.21-2.8.32-4.22,1,.59,1,.59,2.22-.54-.27-.39-.54-.8-.87-1.3l-1.08.15c-.12-1.82-.24-3.71-.37-5.6-.1-1.59-.14-3.19-.32-4.77-.16-1.4-.49-2.77-.7-4.17a5,5,0,0,1,.08-1.08,29.47,29.47,0,0,0,.27-3.1,45.32,45.32,0,0,1-.11-5.59,28.22,28.22,0,0,0-.11-4.86c0-.7-.42-1.38-.45-2.08-.1-2-.1-4.09-.14-6.13a3.61,3.61,0,0,0,0-.87c-.2-.75.05-1.05.88-.85,0-2.81-.46-5.57.07-8.32l.22,0c.26,1,.53,1.94.79,2.91,1.1-.17,1,.86,1.3,1.3a5.8,5.8,0,0,1,1.24-.27c.66,0,.53.63.63,1,.32,1.16.61,2.34.82,3.53s.36,2.68.59,4,.53,2.53.8,3.8a3.49,3.49,0,0,1,.12.54q.23,3.09.44,6.19c.14,2.3.23,4.6.43,6.89.07.84.54,1.65.6,2.49.12,1.83.09,3.66.12,5.5,0,.1,0,.24-.05.3-.85.89-.34,1.94-.29,2.9.18,3.84.44,7.69.68,11.54-.63.23-.66.4-.17.88.16.16.38.37.38.56,0,.83.43,1.19,1.45,1-.25.72-.41,1.3-.65,1.85-.73,1.76-.5,3.62-.59,5.44-.11,2.09-.08,4.2,0,6.3,0,1.3.22,2.59.34,3.89a6.41,6.41,0,0,0-.91.54c-.21.17-.51.52-.45.66a7.33,7.33,0,0,1,.33,1.53,9.76,9.76,0,0,0,.8,2c.4,0,.62.33.67.89.2,2.15.43,4.31.65,6.45-2.07.57-2.07.57-2.34,1.11l1.84-.5-.92.88,1.14-.05.45,0c0,1.26,0,2.5.09,3.73a36.82,36.82,0,0,1-.41,6.8,10,10,0,0,0,.34,3.56,8.89,8.89,0,0,1-.22,5.33c-.31.91-.57,1-1.31.38a9.71,9.71,0,0,0-.83-.6l-.4-.2a13.16,13.16,0,0,1,0,2.1,1.82,1.82,0,0,1-.69,1.2c-.49.25-.85-.24-1.16-.67a7.07,7.07,0,0,0-1.05-1.14c-.74-.66-.71-1.18-.07-1.87a1.85,1.85,0,0,0,.28-1.23,3,3,0,0,0-.4-1l-.85.29-.61.2c.66.9.67,1.35.09,1.87-.41.37-.52.32-1.53-.75a2.49,2.49,0,0,0,.39,2.86c.55.81.83.61,1.43.2a.74.74,0,0,1,1.17.36c.25.71.44,1.44.63,2.16a10.49,10.49,0,0,0,.56,2.24,5.37,5.37,0,0,0,1.68,1.89,2,2,0,0,1,1.13,1.84,27.32,27.32,0,0,0,.48,2.92c.13,1,.23,2.08.3,3.13s.07,2.28.13,3.42a4.16,4.16,0,0,0,.14,1c.2.73.32,1.35-.57,1.77-.51.24-.41,1.48,0,2.09a8.57,8.57,0,0,1,.56,1c0,.09.06.24.13.28,1.1.62,1,1.73,1.25,2.75a11.3,11.3,0,0,0,1.76,4.51l-1.5.53c.09,1.77.21,3.55.29,5.34.05,1.14.36,1.44,1.6,1.42,1.79,0,3.58,0,5.37,0a9.84,9.84,0,0,1,1.3.23c.46.06.62-.16.52-.61a2.32,2.32,0,0,1,.51-1.85,4.54,4.54,0,0,0,.46-2.31c0-1.62-.12-3.23-.18-4.84-.1-2.91-.16-5.82-.32-8.73-.21-3.61-.59-7.22-.75-10.83-.09-2.11.12-4.23.16-6.35,0-1.47,0-2.93-.08-4.39-.1-1.73-.33-3.45-.45-5.17a.94.94,0,0,1,.34-.77c.45-.17.68.15.84.58.35,1,.75,2,1.16,3A6.74,6.74,0,0,0,145.72,104.51ZM112.77,38.66a2,2,0,0,0,1.82-2.4,4.38,4.38,0,0,0-.92-1.53,2.26,2.26,0,0,0-1.5-.6,4.89,4.89,0,0,0-1.71.69c-.81.42-.91,1-.33,1.71a4.45,4.45,0,0,0,.67.76C111.52,37.82,112.27,38.31,112.77,38.66Zm12,24.9c-.09.16-.32.38-.27.48a1.05,1.05,0,0,0,1.25.69c.55-.1.73-.49.54-.92-.31-.69-.74-1.34-1.11-2l-.26,0c-.19.54-.37,1.08-.57,1.68Zm-5.86,18.86a3.7,3.7,0,0,1,.9-.8,3.09,3.09,0,0,1,1.14,0,.72.72,0,0,0-.48-.33c-.63,0-.92-.21-.82-.87,0-.1-.12-.22-.13-.33a2.1,2.1,0,0,1,0-.75,5.61,5.61,0,0,1,.49-.91c-1.09,0-1.11.68-1.22,1.27s-.25,1.42-.38,2.13l-.22,0Zm29.13,71.09,1.35.93a6,6,0,0,0,.49-1.32.83.83,0,0,0-.38-.71C148.64,152.07,148.67,153,148.06,153.51Zm4.07-7.09a2.44,2.44,0,0,0-2.43.18c-.06.12-.08.37,0,.43a.69.69,0,0,0,.53.19C150.83,147,151.42,146.72,152.13,146.42ZM103.55,41.89c-.22.39-.5.66-.45.84s.39.5.61.75c.19-.21.57-.46.54-.62S103.87,42.3,103.55,41.89Zm28.64,116.24c.33-.51.81-.86.29-1.33-.2-.18-.58-.16-1-.28C131.74,157.18,131.94,157.58,132.19,158.13Zm-8.55,13.46c.78.93.78.93,1.57.77C124.93,171.52,124.64,171.36,123.64,171.59Zm24.75-26.07c.19.4.32.68.56,1.17.36-.51.6-.86.85-1.2l-.2-.23Zm-22.5,10.36-.23-.17-1.21.65c.45.21.86.49.93.42A3.76,3.76,0,0,0,125.89,155.88ZM127.21,177l-.3-.17a2.6,2.6,0,0,0-.5.67,2.09,2.09,0,0,0,.08.77l.32,0C126.94,177.86,127.08,177.43,127.21,177Zm2.24-10.35-1.14.2.91,1.16C129.33,167.39,129.38,167.06,129.45,166.65Zm20.44-21.71c-.16-.49-.21-.68-.28-.85s-.11-.32-.2-.33a.78.78,0,0,0-.49.1c-.06,0-.1.3,0,.34C149.16,144.43,149.47,144.64,149.89,144.94ZM119.61,83.08l-1.36.67C119.71,83.62,119.71,83.62,119.61,83.08Zm-14.33-38.2c.1.66.35.85.74.54a1.24,1.24,0,0,0,.22-.39Z"/><path class="cls-1" d="M68.18,183.63a10.35,10.35,0,0,0-.58-1.38c-.09-.15-.39-.19-.59-.29a3,3,0,0,1-.71-.36,10.22,10.22,0,0,1-.86-.88l-.21.2a6.73,6.73,0,0,0,1,.83c.72.42.27,1.08.36,1.62,0,.13-.38.46-.57.45s-.77-.23-.79-.41a6.6,6.6,0,0,1,.09-3.27,5.6,5.6,0,0,0-.07-1.94c-.28.5-.55,1-.82,1.43l-1.15-.83v0A7.49,7.49,0,0,1,63,177a23.81,23.81,0,0,1,.68-3.95,12.75,12.75,0,0,1,1.25-2.43l-.84.06.27-.77-.18.08c-.17-.27-.47-.53-.47-.79,0-1.81,0-3.62,0-5.43a13.13,13.13,0,0,1,.19-1.6l.56,0c0-.08,0-.12,0-.12-.84-.46-.61-1.25-.65-2-.17-2.9-.43-5.8-.59-8.71-.07-1.32,0-2.66,0-4.09a4.27,4.27,0,0,1-3.22-2.1,1,1,0,0,0-.75-.27c-.87,0-1.73.09-2.5.14-1.82,6.82-3.12,13.74-5.23,20.67-.59-.86-1.43-1.36-1-2.46l-1,1.11-1.08-1-.09.08,1.09,1.23a6.49,6.49,0,0,0-1.09.31.7.7,0,0,0-.33.53,1.47,1.47,0,0,0,1.93,1.05c.4-.1.8-.17,1.38-.29a15.46,15.46,0,0,1-.36,1.78,15.79,15.79,0,0,0-1.1,5.74c0,.53-.56,1.08-.88,1.67-1.34-.78-2.34-1.91-3.8-2.31-.61-.16-.92-.15-.91.65-.53-1.05-2.23-1.27-1.78-2.9a7.66,7.66,0,0,1-1,0c-.55-.09-.77-.36-.64-1,.61-2.9,1.12-5.81,1.74-8.7.44-2,1-4.06,1.49-6.09.23-1,.35-2.06.52-3.09.08-.46.18-.92.27-1.38.14-.71.27-1.42.41-2.13.18-.89.42-1.78.53-2.69.22-1.76.35-3.53.54-5.29a10,10,0,0,1,.29-1.21,5.5,5.5,0,0,0-1-.39c-.95-.22-1.19-.89-.72-1.61a17.11,17.11,0,0,0,1.86-5.32c.21-.85.19-1.76.39-2.62a7.32,7.32,0,0,1,.81-2.1,15.61,15.61,0,0,0,1.48-4.59c.3-1.21.47-2.45.67-3.68.24-1.52.44-3,.69-4.56a3.71,3.71,0,0,1,.35-.82c-.36-.57.3-1.24.42-2a11,11,0,0,1,.27-1.1,16.85,16.85,0,0,0,.49-2c.2-1.63.34-3.27.49-4.9s.28-3.49.46-5.24c0-.26.29-.71.41-.7a2.26,2.26,0,0,1,.91.44,2.62,2.62,0,0,1,.41.56,15.29,15.29,0,0,1,.71-2,1.24,1.24,0,0,1,.81-.65c.49,0,.85.25.84.87,0,1.42,0,2.83,0,4.24v4.52l1.2-.27c.24-.87.48-1.82.76-2.76.12-.38.2-.85.81-.76s.68.46.7,1a16.74,16.74,0,0,1,.33,2.15c-.2,2.16-.53,4.31-.82,6.46s-.49,4-.79,6c-.33,2.22-.73,4.43-1.07,6.65-.25,1.58-.41,3.17-.68,4.75-.16.86-.59,1.69-.68,2.56a13.67,13.67,0,0,0,.17,2.54c.08.79.17,1.59.26,2.53-.34-.13-.5-.25-.65-.23a1.21,1.21,0,0,0-.74.24c-.1.11,0,.5.13.69.54.87,1.53.82,2.37,1,.68.17,1.41.13,2.1.29.89.21,1.76.52,2.83.84l1.64-.4,1-2.79.9,1.12a2.44,2.44,0,0,0,.28-.14c-.08-.47-.16-.94-.26-1.48-.43-.13-.73-.35-.66-1.09.15-1.65.15-3.32.19-5,0-.5,0-1,0-1.5a.76.76,0,0,1,.13-.44c1.9-1.64,2-4,2.52-6.19.21-.81.53-1.6.7-2.41.35-1.68.58-3.39,1-5.06a16.57,16.57,0,0,1,.92-2.39c.3-.73.57-1.47.91-2.17a3,3,0,0,1,.69-.7h.29a6.72,6.72,0,0,0-.71-1.26,4,4,0,0,1-.79-2.5c-.25-3.17-.31-6.37-.81-9.51a80.24,80.24,0,0,1-.6-10c-.07-2.48-.36-5-.55-7.44a5.81,5.81,0,0,1-.08-1.17c.33-2.8-.7-5.44-.92-8.17a4,4,0,0,0-.3-.86c-.17,1.14-.32,2.08-.46,3-.32,2-.65,4-.94,6-.39,2.72-.74,5.45-1.14,8.17s-.83,5.63-1.31,8.44c-.11.67-.07,1.57-1.12,1.72-.1,0-.17.4-.21.63-.18,1-.32,2.11-.54,3.15a.92.92,0,0,1-.65.5c-.14,0-.54-.31-.51-.42.23-1.14-.65-1.71-1.26-2.56-.18.64-.33,1.21-.5,1.77a14.69,14.69,0,0,1-.67,1.82c-.11.22-.55.5-.66.44s-.55-.49-.53-.73c.07-1.52.17-3,.35-4.55.22-1.82.53-3.63.76-5.45a21.45,21.45,0,0,1,.3-3c1-3.35,1-6.83,1.51-10.24.31-2.07.3-4.18.55-6.26.39-3.31,1-6.59,1.29-9.89.31-3.09.37-6.2.66-9.29.31-3.28.78-6.55,1.15-9.83.25-2.23.45-4.47.68-6.71.15-1.51.23-3,.46-4.52.49-3.09,1.08-6.16,1.59-9.25a5,5,0,0,1,1.34-2.35c.11-.13.21-.29.35-.48L69,17.72c.59-1,1.25-1.27,2.26-.73,2.63,1.4,5.22,2.85,8,4.36l-2,1.79.08.15a20.63,20.63,0,0,0,2-1.05,1.05,1.05,0,0,1,1.31,0,8.64,8.64,0,0,1,3,3.58,5.9,5.9,0,0,1,.35,2.1,5.63,5.63,0,0,1,0,.71c0,1.44.08,2.87.1,4.31a6.58,6.58,0,0,0,0,2,13.14,13.14,0,0,1,.43,3.93c.09,1.48,0,3,0,4.48L83.57,43c.15.24.19.41.26.43.9.14.79.84.84,1.45.25,3.55.33,7.1-1.21,10.41a37.77,37.77,0,0,1-2.63,4.63A5.27,5.27,0,0,1,77.26,62a6.78,6.78,0,0,0-1.82.72c-.15.09-.14.59-.11.88a35.91,35.91,0,0,0,2.11,9.68c.79,1.87,1.06,4,1.78,5.85a45.69,45.69,0,0,1,2,7.75,22.05,22.05,0,0,1,.13,3.73c0,2.34.07,4.67.14,7a12,12,0,0,0,.37,2.71c.08-.88.17-1.76.22-2.64.1-1.75.18-3.5.27-5.25,0-.15,0-.36,0-.46-.8-1.15-.25-2.4-.26-3.59a36.79,36.79,0,0,1,.14-4.7c.4-3.26.85-6.52,1.42-9.76.41-2.29,1.11-4.52,1.59-6.8.33-1.57.51-3.18.75-4.78.45-3,.83-5.9,1.36-8.83.59-3.32,1.38-6.6,2-9.92.24-1.38.12-2.82.29-4.22a29.86,29.86,0,0,1,1-5.93c.85-2.47.6-5,.91-7.47.21-1.66.27-3.34.42-5a7,7,0,0,1,.25-1c.25.51.39.8.52,1.08,1.29-.62,1.29-.62,2.42,1.12.27-.84.5-1.6.75-2.35a1.49,1.49,0,0,1,.38-.67.69.69,0,0,1,.6-.08c.11,0,.21.3.2.45,0,.52-.17,1-.2,1.55a7.08,7.08,0,0,0,.11,1.12h.25l.34-.73.22-.05c.12.4.22.8.35,1.19s.27.71.41,1.07A4.06,4.06,0,0,1,99,25.11c-.12,3.85-.26,7.7-.5,11.54-.18,3-.56,6-.77,9-.08,1.17.11,2.36.14,3.54,0,1.71.09,3.41.08,5.12a2.88,2.88,0,0,1-.4.93l-.85-.71a6.24,6.24,0,0,0-.18.87c-.25,3-.47,6-.73,9-.16,1.9-.4,3.79-.56,5.68-.05.65-.51.69-1,.84a1.68,1.68,0,0,0-.71.46c-.24.26-.25.79-.83.56,0,0-.21.2-.3.33a22.82,22.82,0,0,0-1.85,3.06c.79.57.83-.56,1.41-.59a2.71,2.71,0,0,0-.08.55c0,.17,0,.46.11.49s.55,0,.57-.08c.22-.72,1.17-1.23.62-2.22l-.64.19c.68-1.67,1-1.88,2.4-1.87-.19,2.42-.39,4.83-.57,7.25-.12,1.49-.19,3-.33,4.46-.24,2.56-.53,5.11-.78,7.66-.08.83-.12,1.67-.19,2.5-.15,1.75-.32,3.49-.46,5.24,0,.38.09.78,0,1.15a1.88,1.88,0,0,1-.43,1.09,5.39,5.39,0,0,0-1.64,2.74c-.24.71-.81.77-1.23,1.11-.24.21-.59.31-.81.53a1.27,1.27,0,0,1-2,0,22.41,22.41,0,0,0-1.63-2,2.28,2.28,0,0,0-1.26-.36,16.74,16.74,0,0,0-1.75,0c0,1,0,2.08,0,3.14a1.75,1.75,0,0,1-1.23,1.86.74.74,0,0,0-.33.52c-.25,1.36-.47,2.73-.71,4.09a1.67,1.67,0,0,1-.28.72,3.7,3.7,0,0,1-.61.57,5.42,5.42,0,0,1-.55-.83c-.26-.57-.46-1.16-.73-1.88l-.74.81c-.21-.89-.39-1.63-.59-2.5-.3,1.11-1.1,2-.67,3a3.23,3.23,0,0,1,1-.27c.25,0,.25.1,0,1.67l.55-.41a3,3,0,0,1,1,2.91c-.63,4-1,8-1.48,12a50.25,50.25,0,0,0-.57,5.16c-.07,3.82-1,7.52-1.5,11.27-.44,3-.76,6-1.21,9-.63,4.28-.52,8.63-1.12,12.91-.18,1.25-.5,2.48-.78,3.71a.45.45,0,0,1-.33.25c-.09,0-.23-.18-.26-.3a3.2,3.2,0,0,1,0-.62l-.25,0c-.25,1-.54,2.09-.74,3.15a4.35,4.35,0,0,1-.55,2,6.69,6.69,0,0,0-.51,1.92c-.11.4.06,1.13-.81.87,0,0-.25.25-.27.4-.16,1.09-.29,2.2-.43,3.3l.26-.12a3.06,3.06,0,0,1,.94.69c.13.2,0,.6-.11.91-.24.4.89.37.22.94Zm4.63-158.2a10.17,10.17,0,0,1,.33,1.95c-.08,2.43-.21,4.86-.37,7.28-.14,2-.35,4-.52,5.94-.27,3-.53,6-.81,9-.22,2.28-.48,4.56-.69,6.85a.63.63,0,0,0,.3.52.59.59,0,0,0,.55-.2,1,1,0,0,1,.84-.6,2.37,2.37,0,0,0,.89-.32,12.54,12.54,0,0,0,2.45-2.12A11.63,11.63,0,0,0,77,50.9a3.13,3.13,0,0,0,.21-1c0-1,0-2,0-3.06,0-.56-.23-1.24.56-1.56.08,0,.08-.33.08-.51q-.06-3.14-.13-6.27c0-.21-.11-.59-.21-.6-1.1-.19-.71-1-.65-1.59a18,18,0,0,0,.27-3.17A10.26,10.26,0,0,0,72.81,25.43Zm17,56.81a15.48,15.48,0,0,0,1.65,1.4,1.44,1.44,0,0,0,1.21.22c.53-.3,1.39-.75.68-1.57a2.47,2.47,0,0,0-1.56-1A5.56,5.56,0,0,0,89.76,82.24ZM58.4,110c-.33,3.27-1,6.52-.74,10.08C58.61,116.58,58.29,113.25,58.4,110ZM96.86,49.47c-1,.55-1.69,2.42-1.34,3.07a4.08,4.08,0,0,0,.84-.35,3.17,3.17,0,0,0,1.07-.9c.12-.24-.16-.71-.27-1.06S97,49.75,96.86,49.47Zm-27.65,103C67.6,151.66,67,152.12,67,154c.34-.34.78-.6.76-.81-.06-.62.37-.58.7-.69A5.11,5.11,0,0,1,69.21,152.45Zm-25.42,14.9a1.41,1.41,0,0,0,0-2c-.3.28-.84.6-.8.81C43.09,166.57,43.49,166.93,43.79,167.35Zm4.72-.52c-.42,1.19-.3,1.4.77,1.48C49.17,167,49.17,167,48.51,166.83ZM76.21,57.24l-.09.41c.45.12.88.27,1.33.36.11,0,.36-.15.36-.24s-.13-.38-.23-.4C77.13,57.29,76.67,57.28,76.21,57.24ZM63.42,175.33l.06.17,1.39-.49-.64-.8Zm1.13-22.23-.08.29,1,1.05a4.21,4.21,0,0,0,.2-1A7.14,7.14,0,0,0,64.55,153.1Zm3.21,19.29c.15-.46.27-.85.45-1.39C66.87,171.46,66.83,171.59,67.76,172.39ZM48.53,143.77c-.2-.34-.35-.57-.57-.94l-.71.84ZM44.7,155.22l.73.62c.31-.47.31-.47-.45-1.12Z"/><path class="cls-1" d="M272.4,133.88c-.38-1.49-.75-3-1.13-4.47-.16-.67-.55-1.35,0-1.79a5,5,0,0,1-.59-1.33c-.27-3.16-.46-6.33-.74-9.49-.11-1.14-.5-2.25-.62-3.4-.29-2.94-.49-5.9-.76-8.84-.2-2-.46-4.06-.68-6.09-.14-1.28-.19-2.57-.43-3.83-.37-2-.47-4-1.53-5.9a4.83,4.83,0,0,1-.45-2.43c0-1.92.16-3.82.23-5.74,0-.49-.1-1,0-1.48s.21-.93.49-1.08.89,0,1.16.5.4.66.67,1.12a5,5,0,0,1,.5-1.21,3.08,3.08,0,0,1,.92-.56c.33,1.54.61,2.86.92,4.27.11-.15.15-.27.24-.32s.52-.46.7-.41a1,1,0,0,1,.63.65c.13.72.13,1.46.3,2.22l.48-2.59c.07-.37,0-.94.58-.8a1.34,1.34,0,0,1,.84.82,23.32,23.32,0,0,1,.46,3.11c.13,1.3.17,2.61.27,3.91a1.84,1.84,0,0,0,.22.66,13.77,13.77,0,0,1,1.45,6.51,9.08,9.08,0,0,0,.72,2.54c.33,1,.68,2.09,1,3.13a.93.93,0,0,0,.65.69,4.74,4.74,0,0,1,1.59,1.45,8.58,8.58,0,0,1,.88,1.46,1.72,1.72,0,0,1,.25.72c0,.17-.13.36-.21.54a2.25,2.25,0,0,1-.46-.33c-.37-.5-.7-1-1-1.53-.51.24-.57.51-.46,1a24.13,24.13,0,0,1,.35,3.19c.14,2.14.24,4.28.37,6.49a1.17,1.17,0,0,0-1.16,1.25c0,.67.58.94,1.4.86.1,1.19.2,2.39.33,3.57a2,2,0,0,0,.31.78c.57.92,1.17,1.81,1.73,2.73a1.05,1.05,0,0,1-.23,1.53.72.72,0,0,0-.2.57c.28,1.33.64,2.65.89,4,.44,2.34.82,4.68,1.2,7s.76,4.59,1.08,6.89a50.16,50.16,0,0,0,1.26,6.53,11.28,11.28,0,0,1,.26,2c.15,1.72,1.12,3.15,1.66,4.73.45,1.29,1.25,2.54.95,4a15.09,15.09,0,0,1-.85,2.59,3,3,0,0,0-.18,1.95,18.56,18.56,0,0,1,.16,2.8c.06.8.18,1.6.26,2.4a3,3,0,0,1,0,.85c-.1.54-.46,1.07.25,1.49.11.06.06.38.09.59.12.93.3,1.85.36,2.79.08,1.32.12,2.66.1,4,0,.61-.47,1-1.21,1.11a10.4,10.4,0,0,1-.18-1.19,1.46,1.46,0,0,0-.66-1.27c-.34-.24-.65-.53-1-.79,0-.09.07-.18.11-.28a5.3,5.3,0,0,0-1.59.51,1.72,1.72,0,0,0-.1,2.32l1.62,1.84-1.06.42a14.72,14.72,0,0,1-.92,1.92c-.42.64-1.13.54-1.43-.26a48.52,48.52,0,0,1-1.68-4.93c-.39-1.49-.31-3.13-.87-4.53a36.48,36.48,0,0,0-2.68-4.58c-1-1.68-1.95-3.34-2.83-5.06s-1.68-3.55-2.47-5.34a27,27,0,0,1-1.44-3.64c-.75-2.7-2.25-5.15-2.6-8a5.73,5.73,0,0,0-.51-1.31,4.36,4.36,0,0,1-.53-1.38c-.06-1.57-.86-2.91-1.18-4.38a27.71,27.71,0,0,1-.31-3.54c0-.61-.1-1.21-.15-1.82h-.27a8.33,8.33,0,0,0,0,.86c.17,2.43.4,4.85.51,7.27.14,2.85.17,5.71.29,8.56.11,2.58.27,5.16.43,7.73.1,1.65.23,3.3.36,4.94,0,.57.11,1.14.15,1.72a5.49,5.49,0,0,1-.57,3.12,6.82,6.82,0,0,0-.39,1.66c-.13.55-.34,1.08-.44,1.63-.25,1.36-.5,2.72-.68,4.09-.08.61-.36.93-.93,1s-.51-.5-.57-.85-.13-.92-.19-1.38l-.24,0c-.11.43-.22.86-.32,1.29a6.87,6.87,0,0,1-.3,1.32,1,1,0,0,1-.74.4c-.16,0-.43-.34-.47-.56-.21-1-.31-2-.52-3a2.9,2.9,0,0,0-.58-.89l-.19.07c.09-1,.26-2,.26-3,0-1.78-.1-3.56-.1-5.34,0-2.44.08-4.88.05-7.32,0-3.62-.07-7.23-.19-10.84-.09-2.65-.37-5.28-.45-7.92,0-1.25.25-2.51.28-3.77a4.36,4.36,0,0,0-.35-1.61c-.29-.76-1.07-1.55-1-2.2.32-1.77-.67-3.24-.76-4.89-.13-2.35-.26-4.71-.56-7a39,39,0,0,0-1.09-5.13,13.21,13.21,0,0,1-.56-4.41c.14-2.12.16-4.24.36-6.35a1.91,1.91,0,0,1,1-1.27c.25-.13.83.29,1.24.52a7.42,7.42,0,0,0,1.27.79,1.78,1.78,0,0,1,1.19,1.15c.45,1.14.89,2.29,1.28,3.46.12.37.46.82,0,1.22a.53.53,0,0,0,.13.38c.62.07.56.6.69,1a39.06,39.06,0,0,0,2.12,5.89,13,13,0,0,1,1,3.3c.52,2.51,2,4.52,3.26,6.67.66,1.13,1.19,2.32,1.8,3.48.23.44.5.87.76,1.3ZM277.47,148c-.44-4.7-1.53-9.2-4.32-13.18a3.29,3.29,0,0,0-.18,1.7c.45,1.33,1.07,2.6,1.6,3.9q.92,2.25,1.78,4.52C276.74,146,277.1,147,277.47,148Zm-6.72-54c0-.9-.73-.38-1.09-.55-.06.18-.2.4-.15.51C269.9,94.71,270.33,94.12,270.75,94.05ZM280,149.7l-.28-.18a2.41,2.41,0,0,0-.54.67c-.07.21.07.49.12.74h.3C279.75,150.52,279.88,150.11,280,149.7Zm2.24-10.39-1.13.19.87,1.19C282.11,140.08,282.17,139.76,282.26,139.31Z"/><path class="cls-1" d="M249.81,29.57a11.37,11.37,0,0,0-1.76-.1,3.23,3.23,0,0,0-1.44.43,1.88,1.88,0,0,1-2.13.15c-1.95-1.07-4.17-1.16-6.26-1.68q-2.58-.64-5.18-1.25a4.42,4.42,0,0,0-1,.05l-5.23.19a2.84,2.84,0,0,0,0,.63c.31,1.14.61,2.28,1,3.4a1,1,0,0,0,.58.6,8.64,8.64,0,0,0,1.83.15c.62,0,.88.36,1.12.81l.92,1.81c-.75.6-1.43.05-2.11-1.8-.45.16-.67.4-.48.91.57,1.63,1.05,3.29,1.72,4.88a10.66,10.66,0,0,0,1.49,2s0,0,0,.07c-.31.24-.85.44-.9.72a6.66,6.66,0,0,0,0,1.94c0,.16.27.29.42.42,1,.88,1.94,1.74,2.87,2.63a5,5,0,0,1,.58.92l-.81.35c.05.72.06,1.3.13,1.87a1.63,1.63,0,0,0,.86,1.45c.68.36.56.72-.35,1.33a1.85,1.85,0,0,0,1.48,1.7l5,1.3c.6.16,1.2.36,1.81.51,2.38.58,4.77,1.16,7.16,1.72.66.15,1.14.38,1.28,1.16a3.76,3.76,0,0,0,.73,1.19c.25.37,1,.49.61,1.21a1.1,1.1,0,0,0,.62.47,11,11,0,0,0,1.49-.25c.43-.06.91-.15,1,.55l-2.12.37L255,63.7l-.17.18a5.29,5.29,0,0,1-.78-.52,1.3,1.3,0,0,1-.32-.53c-.68-1.79-.53-1.54-2.57-1.43-.39,0-.77.09-1.33.17l1.26.94a2.67,2.67,0,0,1-2.08.42c-1.61-.21-3.2-.5-4.81-.72-.56-.07-1.15,0-1.72-.06-1.43-.08-2.85-.18-4.27-.25-1,0-1.4-.15-1.2,1.13a55.37,55.37,0,0,0,2.37,10.4c.12.35.18.71.29,1.06a1,1,0,0,0,.25.45,4.4,4.4,0,0,1,1.66,1.88l-1.34.06c.38,1.16.77,2.29,1.14,3.43.55,1.69,1.14,3.37,1.61,5.08.2.74.44,1.34,1.34,1.54l-.68.88.15.16.95-.85a12.07,12.07,0,0,0,2,.67c3.13.53,6.26,1,9.4,1.47.65.1,1.25.18,1.61.91.15.3.69.41,1.05.62l2.35,1.46-2.09,1.3c.3.32.61.63.89,1,.43.51,1.07.82,1.07,1.69,0,.36.59.73.94,1.12a1.3,1.3,0,0,1-1.64.47,6.85,6.85,0,0,0-3.06-.24,12.28,12.28,0,0,1-6.13-.46c-.51-.19-1.08-.38-1.41.16a3,3,0,0,0-.15,1.29c0,.12.06.26,0,.39,0,.35,0,.71-.06,1.07a5.31,5.31,0,0,1-1.14-.3,2,2,0,0,1-.82-.71A5.46,5.46,0,0,0,245,97a.78.78,0,0,0-.7.18c-.55.68-1.24.7-1.48-.13-.3-1-.86-.85-1.6-.65a14.5,14.5,0,0,1-1.77.24,5.93,5.93,0,0,1-.24,1.17.72.72,0,0,1-1.16.36,5.72,5.72,0,0,0-3.18-.7c-1.35-.13-2.71-.2-4.07-.27a.69.69,0,0,1-.74-.64,4.73,4.73,0,0,0-.44-1.33c-.42-.76-.54-1.42.4-2-1.71-.83-2.86-2.43-4.79-2.44.91-2.34.32-4.51-.18-6.71-.74-3.24-1.49-6.48-2-9.76-.58-3.64-.9-7.33-1.32-11a1,1,0,0,0-.77-1,9,9,0,0,1-1.56-.53,1,1,0,0,1-.49-.73c-.09-1.67-.1-3.34-.17-5-.07-1.94-.14-3.87-.26-5.8-.16-2.53-.38-5-.58-7.57-.06-.72-.12-1.45-.23-2.16a1,1,0,0,0-.43-.51,1.32,1.32,0,0,1-.61-1.89c.36-.77.74-1.51.18-2.36-.07-.11.19-.42.27-.64a2.55,2.55,0,0,0,.25-1c-.6-2.65-1.24-5.29-1.89-7.93-.17-.71-.47-1.39-.64-2.1-.39-1.59-.72-3.2-1.1-4.79-.56-2.33-.61-2.39,1.55-3.45a3.79,3.79,0,0,1,2.35-.23c1.83.42,3.6,1.15,5.43,1.58,2.46.58,5,1,7.46,1.5,1.86.38,3.71.84,5.56,1.24.87.19,1.76.3,2.62.53,1.28.34,2.55.73,3.81,1.15.25.08.44.34.65.52.65.53,1.32,1,1.93,1.59s1.41,1.44,2.15,2.12a4.74,4.74,0,0,0,1.29.83c.59.26,1,.51,1,1.29A8.62,8.62,0,0,0,249.81,29.57ZM240.3,88.15c.61.15,1.07.28,1.54.38a.42.42,0,0,0,.3-.15.3.3,0,0,0,0-.26C241.58,88,241.09,87.37,240.3,88.15Zm-10.09-41-1.36.56,1.17.8Zm4.08,20.42-.26.33.54.29-.44.54c.71.18.75-.24.65-.64C234.74,67.92,234.47,67.77,234.29,67.6Z"/><path class="cls-1" d="M155.2,93.53l-3.63,4c-.2.21-.38.44-.6.63-1.2,1.08-1.41,1.06-2.92.39a2.31,2.31,0,0,0-1.64-.17,3.9,3.9,0,0,1-4.93-1.19c-.43-.49-.87-1-1.32-1.47l.51-.63-.56-.46s0-.1.06-.16c.23-.56,0-.83-.53-1a1,1,0,0,1-.55-.62c-.25-1-.44-2.13-.69-3.34l.93.46-.51.32a1.7,1.7,0,0,0,2,.54c1.15-.39-.1-1.13.37-1.7l-2.84-.14c-.19-.61-.42-1.19-.57-1.79-.32-1.22-.24-1.32,1.07-1.38a5,5,0,0,0,.27.93c.11.24.33.55.53.57a.8.8,0,0,0,.64-.43,3.28,3.28,0,0,0,0-1.09c.59.08,1.34-.6,2.23,0a13.12,13.12,0,0,0,2.28,1.14c.32.12.76-.08,1.25-.15-.26-2.06,1.58-3.18,2.17-5.19.46.55.82.91,1.1,1.33a6.22,6.22,0,0,1,.31.89c.3.63.35,1.44,1.38,1.51.41,0,.79.55,1.28.92a17.72,17.72,0,0,1,.54-2.12c.14-.37.53-.63.76-1a2.07,2.07,0,0,0,.48-1c0-2.12-.05-4.25-.2-6.36-.14-2-.41-3.9-.66-5.84a18.26,18.26,0,0,0-.45-2.54,1.4,1.4,0,0,0-.66-.87,34,34,0,0,0-4.22-1.68c-.72-.21-1.52-.17-2.11-.75-.15-.14-.33-.25-.57-.43a4.86,4.86,0,0,1,2.59-1.37,22.35,22.35,0,0,1,4.9.37,27.92,27.92,0,0,0,4.47-.12c.08,0,.15,0,.23,0,2-.11,4-.24,6-.31a3.51,3.51,0,0,1,1.06.32,19.31,19.31,0,0,1,2-.82,9,9,0,0,1,2-.32,2.87,2.87,0,0,1,.92.22,5,5,0,0,1-.51,1.33c-.22.28-.67.38-1,.55a4.43,4.43,0,0,1,.13.77,4.34,4.34,0,0,1-.18.85l-6.43,1.27c.13,1.39.25,2.78.38,4.19l-.79.1c1.05.88.7,2,.74,3s.21,2,.34,3c0,.33.17.66.2,1,.07.92-.09,1.09-.95,1.09h-.81l.25-.86c-.83-.42-1.68-.89-1.75-2l-.26,0c-.21.6-.41,1.19-.62,1.78l-.54-.21a18.28,18.28,0,0,0,.37,2.29,1,1,0,0,0,.75.55c.72,0,1.44,0,2.16-.05a3.11,3.11,0,0,1,.43.08c-.16.43-.31.82-.45,1.22l.15.07.63-1c-.09,1-.35,2,.53,2.85l-.17.12-.54-.45-.92,1.29,1.68-.59,1,1.13a1.91,1.91,0,0,0-1.07,2.1,9.12,9.12,0,0,0,.54,3c.18.34-.13.9-.13,1.36,0,1.55,0,3.09,0,4.64,0,1.33.08,2.67.09,4,0,1.07,0,1.07-1.18,1.26a142,142,0,0,1-1.14,19.09l.23.09a8,8,0,0,0,.49-.79c.56-1.21,1-2.47,1.68-3.64s1.49-2.14,3-1.9a4.17,4.17,0,0,1,1.4.44,17.77,17.77,0,0,1,3.94,3.16c2.11,2.16,2.66,4.74,3,7.52.22,1.79.65,3.54,1,5.32.07.42.21,1,0,1.28a3.06,3.06,0,0,0-.3,2.3c.25,2.08.56,4.14.83,6.22.16,1.24.28,2.49.4,3.74a1.14,1.14,0,0,1,0,.69c-.94,1.44-.31,3-.23,4.44s.4,3.08.51,4.62c.05.66-.26,1.35-.22,2,.05.88.41,1.76.4,2.63,0,1.8-.15,3.6-.3,5.39a39.71,39.71,0,0,1-.63,5.45,25.53,25.53,0,0,1-1.68,4.45,1.16,1.16,0,0,1-.93.54c-1-.13-1.34.51-1.79,1.14a18.57,18.57,0,0,1-2.06,2.65,28.19,28.19,0,0,1-3.1,2.29c-.43.3-2.18-.27-2.56-.78a6.1,6.1,0,0,1-.34-.54,5.61,5.61,0,0,0-1.75-1.85,3,3,0,0,1-1.16-1.84c-.18-3-1.12-5.86-1.54-8.81a39.36,39.36,0,0,0-1.24-5.34,4.4,4.4,0,0,1,.43-3.25c.08-.18.22-.44.15-.56-.46-.91-1-1.79-1.47-2.67a.29.29,0,0,0-.11-.11c-.29-.17-.86-.37-.84-.47a10.89,10.89,0,0,1,.52-1.62,2,2,0,0,0,.15-.61,7.22,7.22,0,0,1,.47-3.75,1.4,1.4,0,0,0-.24-1.79c-.24-.21-.27-.66-.4-1a11.14,11.14,0,0,1-.53-4.1c0-1.71-.18-3.45-.07-5.16a48.81,48.81,0,0,1,.79-4.94c.21-1.19.54-2.35.68-3.55a6.29,6.29,0,0,1,1.25-3.07A35.08,35.08,0,0,0,160.3,121c-.79.29-.93-.15-1-.66-.18-1.32-.35-2.64-.53-4,0-.22-.1-.56-.23-.61-.73-.26-.74-.88-.82-1.47-.31-2.39-.61-4.78-.94-7.16-.44-3.22-1-6.43-1.33-9.66a34,34,0,0,1,0-3.91Zm9.88,75.95c.3.69.55,1.37.89,2a.86.86,0,0,0,.62.25,18.26,18.26,0,0,0,2.2-3.65,10.94,10.94,0,0,0,.34-3.72c0-.94.28-2-.37-2.83-.08-.11.09-.39.12-.6s.2-.78.06-1c-.5-.91-.48-1.08.31-1.79a1.48,1.48,0,0,0,.54-.94c0-2.58-.15-5.16-.25-7.74a28.12,28.12,0,0,1-.12-2.9,1.55,1.55,0,0,0-.51-1.36,1.14,1.14,0,0,1-.22-.87,20.22,20.22,0,0,0,.45-2.5c0-1.49-.16-3-.22-4.45,0-.67-.49-1.39.07-1.85a6,6,0,0,1-.42-1.17c-.07-.51,0-1.05,0-1.57q-.41-2.65-.91-5.31c-.08-.4-.38-1.08-.58-1.09a2.16,2.16,0,0,0-1.43.53c-.57.59-.89,1.42-1.44,2a4.2,4.2,0,0,0-1,3,6.68,6.68,0,0,1-.3,1.45,18.35,18.35,0,0,0-.62,2.48c-.16,1.66-.19,3.33-.28,5a6.69,6.69,0,0,0,.6,3.74,3,3,0,0,1,.31,1.79c-.15,1.48-.06,3-.23,4.46a3.12,3.12,0,0,0,.58,2.31,1.2,1.2,0,0,1,.17.67c0,.71,0,1.42,0,2.12,0,.86-.08,1.72-.1,2.58a15.86,15.86,0,0,0,0,3.51c.44,2.29,1.11,4.55,1.65,6.63-.21.34-.32.53-.44.71Zm5.69.14v-.3a7.26,7.26,0,0,0-.92-.47c-.07,0-.38.35-.35.41a2,2,0,0,0,.61.78C170.2,170.1,170.54,169.77,170.77,169.62ZM157.22,75c-1.66-.17-.39.87-.56,1.36l.81-.38-.49-.76Zm16,57-.32.11a3.19,3.19,0,0,0,.29,1c.09.14.44.12.67.16,0-.22.05-.48,0-.64A3.25,3.25,0,0,0,173.18,131.9Zm-14.65-2.17.75-1.32C158.29,128.29,158.11,128.6,158.53,129.73Zm.78,32.14.89,1.1c.12-.6.18-.92.24-1.24a.71.71,0,0,0-.27-.07Zm-3.85-95.19c-.18-.64-.81-.87-1.51-.49Z"/><path class="cls-1" d="M57.9,53.44l.59.81L52.72,56.4l.64,1c.61,1,1.23,2.06,1.83,3.1a.82.82,0,0,1,0,.56,1,1,0,0,0,1,1.27c.83-.17,1.32.34,1.82.81a6.93,6.93,0,0,1,.73,1.13l-.87.79c.09.21.2.45.31.68a5.56,5.56,0,0,1,1.07,2.86A17,17,0,0,0,60,72.21a14.93,14.93,0,0,1-.78,8.8,23,23,0,0,1-4.74,7.18c-1.11,1.14-2.2,2.31-3.41,3.35s-2.65,2-4,3a10.19,10.19,0,0,1-4.85,2.09,5.37,5.37,0,0,0-2.73,1c-.86.64-1.21.55-2-.28-.29-.32-1.53.09-1.61.6-.13.83-.51,1-1.26.72a4.75,4.75,0,0,0-1.32,0c-.16.27-.37.69-.63,1.07a2.62,2.62,0,0,1-.56.48c-.19-.24-.55-.49-.54-.73a30.51,30.51,0,0,1,.3-3.44c.28-1.91.66-3.81.95-5.72.15-1,.18-2.07.28-3.11.32-3.33.61-6.67,1-10,.28-2.57.66-5.14.93-7.71.09-.83-.09-1.68,0-2.51.06-1.17.25-2.34.34-3.51s.16-2.25.14-3.37c0-.77.15-1.25,1.12-1.09.16-1,.26-2,.47-3,.42-1.91.91-3.8,1.35-5.71.13-.56.34-1.14-.36-1.6-.19-.13-.14-.75,0-1.11.65-2.65,1.39-5.27,2-7.92.68-3,1.23-5.94,1.88-8.9.26-1.17.59-2.33.94-3.48.7-2.37,1.34-4.77,2.18-7.1.66-1.84,1.58-3.58,2.38-5.37l.31.06c0,.56,0,1.11-.08,1.69.61-.07.72.27.6.86a7.25,7.25,0,0,0,0,1.24c1.82-.85,1.91-.83,2.68.34.2-.4.38-.76.57-1.11.42-.81.85-.86,1.35-.07a14.4,14.4,0,0,1,.93,1.89c.24.51.4,1.07.67,1.57a7.84,7.84,0,0,0,.87,1.26c.44.55,1,1.05,1.39,1.6a25,25,0,0,1,2,2.63c.61,1,1,2.1,1.57,3.14.89,1.72,1.91,3.38,2.68,5.15A10.37,10.37,0,0,1,63.5,41c-.24,1.44-.55,2.87-.89,4.3A11.75,11.75,0,0,1,62,46.87a5.38,5.38,0,0,0-.6,2.79c.11.72-.07,1.32-1,1.33a.84.84,0,0,0-.53.28C59.19,52,58.59,52.66,57.9,53.44ZM44,58.75c-.32,2.32-.62,4.48-.93,6.64q-.33,2.25-.69,4.5a36.27,36.27,0,0,0,0,9.31c.14,1.24,0,1.41-1.18,1.63-.2,2.43-.4,4.88-.61,7.42.23-.13.39-.21.53-.31,1.41-1.06,2.83-2.09,4.21-3.18a15.58,15.58,0,0,0,5-5.82A48.33,48.33,0,0,0,52,74.37a2.8,2.8,0,0,0,0-.87c-1-.08-1.22-.67-1.25-1.52a26.42,26.42,0,0,0-.31-3.21,12,12,0,0,0-.51-1.64l-.21.06-.18,2c-.73,0-.8,0-1-.58-.21-.78-.31-1.58-.52-2.35s-.64-1.78-.87-2.68a10.82,10.82,0,0,0-2.43-4.17A7.07,7.07,0,0,0,44,58.75Zm9.41-13.24H53.2c-.09-.27-.34-.6-.26-.79a33.53,33.53,0,0,1,2-4.34,3.38,3.38,0,0,0,.64-2.28,13.33,13.33,0,0,0-.35-3.21,36.33,36.33,0,0,0-2.71-5c-.77-1.25-2.15-2-2.8-3.39-.09-.19-.38-.29-.75-.55-.12,3.77.38,7.42-.8,10.93l-1-.23A8.08,8.08,0,0,0,47,38.29c.14,1.57.58,3.15-.45,4.61-.06.07,0,.2,0,.31-.06.75-.14,1.51-.16,2.26,0,.15.19.3.26.41-.13,1.64-1.1,3.19-.69,4.95C48.25,51.06,52,49.11,53.43,45.51Zm4-18.78a8.68,8.68,0,0,0-.5,1.52c0,.23.25.53.45.73s.41-.08.52-.22A1.29,1.29,0,0,0,57.43,26.73ZM55.61,85.92l1.16-1.67c-.14,0-.45,0-.47,0C56.17,84.85,55,84.92,55.61,85.92Zm1.06-33.07a8.77,8.77,0,0,0-.24-.85c0-.13-.16-.31-.26-.32a.71.71,0,0,0-.48.16.34.34,0,0,0,0,.34C56,52.4,56.28,52.59,56.67,52.85Z"/><path class="cls-1" d="M238.82,107.77l-.88-1.34c.76-.4,1.17-.06,1.61.58a13.83,13.83,0,0,0,1.34-1.75,4.74,4.74,0,0,1,3.19-2.1,16.74,16.74,0,0,1,3.88-.46,1.59,1.59,0,0,1,1.12.63,33.49,33.49,0,0,1,2.71,3.82c.8,1.41,2,2.64,2,4.44s.25,3.68.38,5.52a2.88,2.88,0,0,1-.06,1c-.28.81-.25,1.44.62,1.89.29.15.46.54.74.91-1.69.65-.9,1.94-.89,3a12.92,12.92,0,0,0,.1,2.16c.23,1.26.56,2.49.88,3.73.26,1.05.55,2.1.86,3.14.24.83-.56,1.5-1.44,1.48-.23,0-.46,0-.69.06a.76.76,0,0,0,0,.17c1.29.84,1,2.21,1.11,3.43.08.88,0,1.77.05,2.66.14,3.21.3,6.42.45,9.63,0,.73,0,1.46,0,2.19a7.11,7.11,0,0,0,.2.89c.09.39.66.82.05,1.14-.22.12-.67-.19-1.13-.34,0,.52,0,1.16,0,1.8-.08,1.64-.2,3.28-.28,4.93,0,.46,0,.93,0,1.39a7.81,7.81,0,0,1-1.64,4.46,7.59,7.59,0,0,0-.81,1.61c-.29.64-.52,1.3-.83,1.92-.19.37-.34,1-.92.72-.32-.13-.54-.53-.88-.88-.47.13-1.46-.28-1.69.73a9.45,9.45,0,0,0,0,2.14,2,2,0,0,1-.57,0,4.05,4.05,0,0,0-2.34,0c-.17.07-.61-.23-.77-.46a2.17,2.17,0,0,0-1.86-.91,13.08,13.08,0,0,1-3.58-1.33c-.16-.07-.23-.39-.34-.59,1.7-.68,1.76-2.55.07-4.56l-1.28,1.8a32.58,32.58,0,0,1-.61-3.62c-.08-1.28.09-2.58.1-3.88a1,1,0,0,0-.44-.71c-.59-.39-1.22-.7-1.23-1.54,0-.29-.08-.65.06-.87A1.69,1.69,0,0,0,235,154a3.39,3.39,0,0,1-1.14-2.48,2.86,2.86,0,0,0-.34-.82c.86-.17,1.28.39,1.56,1s.38,1.2.68,1.8c.11-2.1,1.38-4,.89-6.2a21.69,21.69,0,0,1,0-3.6,9.61,9.61,0,0,0-.49-2.09c0-.13-.2-.3-.31-.3-1.06,0-.83-.83-.63-1.29.79-1.8.34-3.68.47-5.51a29.83,29.83,0,0,0,0-3c0-.47-.17-.93-.21-1.41a3.38,3.38,0,0,1,0-1.23,2.75,2.75,0,0,0-.2-2.36c-.42-.8,0-2,0-3.08,0-.44.38-.88.35-1.3a31.62,31.62,0,0,1,2.75-13.8A4.13,4.13,0,0,1,238.82,107.77Zm5.42,4.83a6.29,6.29,0,0,0-.43.91,26.65,26.65,0,0,0-.71,2.9c-.31,2.14-.6,4.29-.79,6.45-.25,2.85.52,5.63.74,8.44.07,1,0,2,0,3.06.06,1.59.19,3.19.18,4.79,0,1-.3,1.95-.31,2.93,0,.8.29,1.61.29,2.42,0,3.34-.1,6.69-.11,10,0,2.15-.42,4.33.38,6.44a1.61,1.61,0,0,1,.09.62,4.47,4.47,0,0,0,.94,2.86,3.44,3.44,0,0,0,.57-.7c.89-1.92,1.82-3.83,2.6-5.8a4.46,4.46,0,0,0,.15-2.24,22.36,22.36,0,0,1-.36-5.94c.13-1.29.36-2.57.57-3.85a19.79,19.79,0,0,0,.45-2.59c0-1.15-.19-2.3-.21-3.45,0-2.14,0-4.29,0-6.43,0-.73-.26-1.47.5-2a.43.43,0,0,0,.1-.36c-.2-.81-.44-1.61-.64-2.41a19.18,19.18,0,0,1-.7-2.93c-.15-1.61-.07-3.24-.18-4.86-.07-1-.31-2.08-.46-3.13a4.36,4.36,0,0,1-.14-2.43c.24-.6-.27-.95-.71-1C245.08,114.22,244.71,113.51,244.24,112.6Zm-.56-5c-.12-.58-.26-.87-.78-.91-.74,0-.75.63-1,1s.67,1.2.9,1A4.58,4.58,0,0,0,243.68,107.61Zm-2.85,51.2-.27,0c-.12.3-.4.65-.33.9s.48.43.74.65l.17-.16C241,159.72,240.93,159.26,240.83,158.81Z"/><path class="cls-1" d="M19.19,146.39a6.56,6.56,0,0,1-.28,1.1,6.5,6.5,0,0,1-.65,1c-.54-.76-.65-2.61-.17-3.13.2-.21.66-.18,1.27-.14,0-1.22-.08-2.44,0-3.65.14-1.87.53-3.74.58-5.61a10.6,10.6,0,0,1,.74-3.14,1,1,0,0,0-.32-.85,2,2,0,0,1-.65-2,30.56,30.56,0,0,0,.29-3.83c0-.27-.28-.58-.48-.84-.41-.52-1-1-.27-1.69.07-.07.16-.22.13-.27-.55-.92,0-1.9-.12-2.84a.72.72,0,0,1,.15-.39c-.11-.84-.24-1.61-.29-2.39a36.14,36.14,0,0,1,1-9.66,3,3,0,0,0,0-.5,21.84,21.84,0,0,0-2.81,0c-.3,0-.63.51-.79.86-.49,1.11-.63,1.19-1.54.46a2.42,2.42,0,0,0-2.07-.59,8.63,8.63,0,0,1-2.55-.27c-1.7-.28-3.53-.45-4.9-1.51-1.15-.9-2.39-.71-3.6-1a3.82,3.82,0,0,1-1.39-.63,1.28,1.28,0,0,1,.31-2.27c1-.42,2.08-1,3.2-.14.19.15.55.08.84.09,2.64.1,5.28.24,7.92.26,1.4,0,2.81-.22,4.21-.32,1.79-.13,3.59-.17,5.38-.38a61.8,61.8,0,0,1,11.38.14,20.15,20.15,0,0,0,2.33,0A33.82,33.82,0,0,1,46,103c1.09.26,2.23.31,3.33.51a6.71,6.71,0,0,1,1.18.44c-1.06,1.42-2.06,2.32-3.83,2.38a35.67,35.67,0,0,1-5.07-.31,13.18,13.18,0,0,0-2.42.12c-1.66.12-3.32.26-5,.36a1.91,1.91,0,0,0-1.44,1.69c0,1,0,2-.06,3-.12,3.54-.18,7.09-.38,10.62-.17,3.22-.49,6.43-.75,9.64a.64.64,0,0,1-.16.42c-1.59,1.34-1.7,3.12-1.49,5,0,.31,0,.63.08.94.07.56.14,1.11-.63,1.26-.07,0-.11.15-.26.36.94-.07,1,.5.94,1.12,0,1,0,1.93-.09,2.9a1.79,1.79,0,0,1-.18.6l1.3,1.53-.19.17-1.4-1.24,1.62,2.32c.27,0,1-.42.33.64-.3.45-.16,1.18-.27,1.78s0,1.18-.72,1.45c-.08,0-.12.22-.12.33-.22,3.29-.4,6.59-.65,9.88a14.77,14.77,0,0,1-.55,2.3,5.24,5.24,0,0,0-.24,1.08c0,.94,0,1.89,0,2.83a3.52,3.52,0,0,1-.25.88l-.33-.06c0-.47.08-.95.12-1.49l-.45-.14c-.09.95-.24,1.88-.26,2.81,0,1.54.1,3.08.05,4.62a2.91,2.91,0,0,1-.55,1.43c-.15.23-.59.27-1,.44-.07.55-.14,1.28-.29,2-.07.33-.28.89-.46.9a1,1,0,0,1-1.11-1c-.15-1-.26-2.07-.4-3.11,0-.1,0-.2,0-.28l-.67.19c0-.28,0-.56,0-.84a5.47,5.47,0,0,0-.14-.71l.88.11c-1.71-.66-1.7-1.84-1.3-3.15-.76,0-1,.42-1.1,1.2s-.24,1.43-.36,2.14l.65.53-.18.17.88-1c-.13,1.67-.17,1.71-1.75,2.12-.15-1.06-.31-2.09-.44-3.13a25.68,25.68,0,0,0-.39-3.33,15.52,15.52,0,0,1,.16-7.89c.51-2.11.82-4.27,1.13-6.41a17.56,17.56,0,0,0,0-2.51c-.07-.08-.1-.14-.14-.15-1.6-.39-1.59-.39-1.53-2a6.77,6.77,0,0,0,0-.78c-.05-.75-.12-1.5-.18-2.26Zm5.55,10.2a4.39,4.39,0,0,0,4.12,1.46l-.9-.73c.08-.24.16-.46.26-.77-.91-.11-1.76-.25-2.61-.3C25.33,156.24,25,156.47,24.74,156.59ZM27.86,138c-.35,0-1.24-.73-.8.48a.28.28,0,0,1-.13.24c-.6.25-.58.82-.48,1.26s.45.58.75.75a.87.87,0,0,0,.75-.09,5,5,0,0,0,.76-.88l-1.27-1.46Zm-.14,15c-.2.63-.37,1.16-.56,1.73l.37.05c-.1.2-.28.44-.23.5.2.26.44.61.71.66s.92-.11,1-.3a2.09,2.09,0,0,0-.12-1.35A6.53,6.53,0,0,0,27.72,152.94ZM17.15,105.28l.31-.18c-.16-.44-.31-.89-.46-1.34l-.23-.05c-.12.31-.39.65-.33.91S16.9,105.07,17.15,105.28Zm12.38,29.05-.22,0c-.24.4-.48.8-.75,1.27h.86C29.46,135.12,29.49,134.72,29.53,134.33Z"/><path class="cls-1" d="M98.81,143.14c.28.51.59,1,.87,1.55.1.19.24.55.2.58a1.41,1.41,0,0,1-.81.32c-.54-.06-1-.31-1.59-.39-1-.15-1.94-.26-2.91-.32-1.41-.09-2.82-.11-4.23-.19-.43,0-.75-.57-1.26-.25a4.13,4.13,0,0,0-.92.62l-1.75.49c.6.61,1.12.78,1.52-.31a3.06,3.06,0,0,1,.16.87,11.6,11.6,0,0,0,.09,4.51,5.58,5.58,0,0,0,1.19,2.3c.32.45.7.72,0,1.17-.15.11-.35.37-.32.51.18.84-.46,1.11-1,1.47s-.55.48,0,.74a1,1,0,0,1,.43.59c.24.8.42,1.62.64,2.43a1.55,1.55,0,0,1-.77,2,.85.85,0,0,0-.39.53,14,14,0,0,0,.24,2.42c.06.26.48.53.79.63a21.79,21.79,0,0,0,2.88.76c.84.14,1.72,0,2.56.17,1.62.29,3.23.66,4.83,1,.92.22,1.83.51,2.74.78a1.18,1.18,0,0,1,.49.24,2.83,2.83,0,0,0,1.93,1c.53.05.77.77.43,1.45l-.93-.08v1.48l-1.88-.34c.59,1.42,1.75,1.17,2.88,1,.7-.13.89.3,1,.82s-.24.72-.74.72h-3.41c0,.35-.08.68-.11,1l-.21,0c-.16-.34-.31-.68-.52-1.12a3.18,3.18,0,0,0-.83.1,3.05,3.05,0,0,1-2.42.21c-.07,0-.18,0-.22,0-1.28.87-2.68.14-4,.3-.3,0-.65-.31-1.07-.52-.3.45-.84.31-1.45.2-1.44-.24-2.89-.39-4.4-.58v1.17c-.84-.67-1.93-.37-2.51-1.3-.12-.18-.63-.13-1-.15s-.57,0-.81,0L82,172.49l-.3,0-.35,1.31c-1.64.3-3.42.65-5.21.93-.45.07-1.19.05-1.37-.22-.51-.72-1.22-1.41-1.09-2.45.37-2.85.69-5.72,1.09-8.57a11.47,11.47,0,0,0,.42-3.56,2.77,2.77,0,0,1,.28-1.54c.11-.22.64-.25,1-.34a4.34,4.34,0,0,1,.63-.09c-.13-.2-.25-.41-.37-.61l0,0c-.15-.38-.31-.77-.49-1.24a2.46,2.46,0,0,0,.15-.58c.25-2.77.48-5.54.74-8.3.22-2.3.48-4.59.73-6.88a1.31,1.31,0,0,0-.58-1.41,1.3,1.3,0,0,1-.42-1,8.94,8.94,0,0,1,.42-1.88.74.74,0,0,1,.53-.33,2.25,2.25,0,0,1,.67.1c.26-1.08.53-2.16.81-3.31-1.21-.55-.8-1.64-.57-2.6.74-3.14,1.57-6.26,2.33-9.39.44-1.83.85-3.67,1.21-5.52a10.75,10.75,0,0,0,.41-3.39c-.18-1.21.46-1.17,1.2-1.29.92-.15,1.84-.29,2.75-.48a.93.93,0,0,0,.55-.35,1.42,1.42,0,0,1,1.77-.63c1.13.31,2.25.65,3.41,1l.25-.39c.51-.74,1.16-.74,1.44.09s.71.84,1.41,1a9.94,9.94,0,0,1,2.88,1.3,7.5,7.5,0,0,1,1.8,1.62c.26.3.23.84.35,1.38l-1.86.46,1.33,1.79a2.25,2.25,0,0,1,.12.21c.36.6.55,1.38,0,1.8a2,2,0,0,1-1.72,0,12.43,12.43,0,0,0-6.53-1.31c-.78.06-1.57-.13-2.35-.14-.24,0-.63.13-.71.31a3.33,3.33,0,0,0-.19,3.16c.18.31-.17.91-.28,1.37,0,.08-.11.17-.08.22.52.88,0,1.58-.28,2.4a20.69,20.69,0,0,0-.55,2.67.86.86,0,0,0,.46,1.1c.43.25.57.56.26,1a5.93,5.93,0,0,1-.66,1.06,3.41,3.41,0,0,0-1,2.31c-.11,1-.24,2-.4,3-.1.62,0,.93.72,1.12a55.06,55.06,0,0,0,7.33,1.27,26.47,26.47,0,0,1,4.24,1.11C99.72,140.29,99.79,142.29,98.81,143.14Zm-.24,26.51c-.18.19-.28.36-.43.44-.79.43-.72,1-.28,1.61a1.51,1.51,0,0,1,.24.57c.18.7.72.8,1.28.74s1.08-.22,1.11-1a.86.86,0,0,1,.36-.65c.89-.54,1-1.42,1.16-2.56a6.24,6.24,0,0,1-.62.47c-.21.12-.55.34-.64.27-.82-.62-1.8-.32-2.67-.55,0,0-.11.07-.24.16Zm-14.16-8.4,1.23.64c0-.42.06-.85.1-1.35l.63-.19c.09-1.32-1.2-.26-1.5-.93a3.72,3.72,0,0,0-.88.2C84,160.27,85,160.52,84.41,161.25Zm.44-48.69a1.32,1.32,0,0,0,1.89,1.21C86.42,112.91,85.6,112.89,84.85,112.56Zm3.4,55.51.18.22,1-.59-1-.42C88.31,167.64,88.28,167.86,88.25,168.07Zm3.67,5.69h.29c0-.32.05-.64.08-.95l-1,.19Z"/><path class="cls-1" d="M151.45,27.31c-1.7,1.92-2.18,4.15-2.73,6.35-.27,1.07-.25,2.36-.87,3.14s-.52,1.81-.8,2.69c-.15.46-.48.87-.59,1.33-.19.8-.28,1.63-.41,2.44-.23,1.48-.46,3-.71,4.43,0,.15-.23.31-.39.4-.52.33-.36.6,0,.9.16.13.38.32.4.5.08.78.09,1.56.13,2.32a2.14,2.14,0,0,0-.65.14.62.62,0,0,0-.21.41c.88.71,0,1.61.24,2.41.06.23-.41.6-.65.9s-.42.36-.42.53a56.15,56.15,0,0,0,.21,5.95c.48,3.63,1.15,7.24,1.74,10.85,0,.26.08.51.09.64a6,6,0,0,0-.71.56c.28.52.63,1,.91,1.42-.71-.17-.59.58-.52,1s.58.47.89.7a2.39,2.39,0,0,1,.22-.23l1.34,3.8c0,.09.07.23,0,.3a11.56,11.56,0,0,1-2.42,3.54,3.28,3.28,0,0,0-2.06-2.14c-.4-.15-.77-.34-1.16-.51-.71-.29-.86-.19-.84.73-.67-.69-1.3-1.26-1.84-1.9a1,1,0,0,0-1.23-.32c-.57.19-1.12.43-1.64.64-.26-1.71-.55-3.51-.81-5.32a1.61,1.61,0,0,1,0-.92c.74-1.35.1-2.58-.17-3.87a30.94,30.94,0,0,1-.44-3.72c-.07-.83-.09-1.66-.09-2.49,0-1.24,0-2.49.06-3.68a2.92,2.92,0,0,1-.37-1.06c0-.37,1-.63,1.47-.45a2.37,2.37,0,0,0,2.81-1.86c0-.33.1-.65.15-1-1.89.14-2.9,1.77-4.46,2.75,0-.65,0-1.2.09-1.75.44-3.9.81-7.82,1.36-11.71a68,68,0,0,1,1.45-6.74c.7-2.71,1.49-5.4,2.28-8.09a29.11,29.11,0,0,1,6.1-11.16,7.86,7.86,0,0,0,.94-1.34,3.27,3.27,0,0,1,3.23-1.69,8.28,8.28,0,0,1,5.07,1.56,15.61,15.61,0,0,1,2.6,3.1A11.47,11.47,0,0,1,159.9,27c.26,1.78.66,3.55,1,5.32.08.38.11.77.16,1.15l-.22.11-.62-1a3.75,3.75,0,0,0-1.37.27,1.84,1.84,0,0,0-.17,2.52,11.33,11.33,0,0,1,.89,1.08c.5.81,1.32.41,2,.56,0,.32.09.63.15,1.11a10.11,10.11,0,0,0-1.48-.24,5,5,0,0,0-1.12.26c.2.36.38.73.6,1.07.09.13.35.16.42.29a1.86,1.86,0,0,0,2,.95c.15.84-.31.94-.93.88a2,2,0,0,1-.06.56c-.71,1.38-.17,2.82-.22,4.23a9.86,9.86,0,0,1-.64,2.93c-.2.56-.79.31-1.11,0a4.73,4.73,0,0,1-.81-1.16,18.19,18.19,0,0,1-1.62-5.3c-.13-.74-.25-1.59-1.18-1.77-1.33-.27-1.64-1.2-1.7-2.36C153.65,34.69,152.39,31.12,151.45,27.31Zm-10.28,47c-.56.18-1.21.34-.86,1.12a1.51,1.51,0,0,0,.88.53A1.25,1.25,0,0,0,141.17,74.27ZM142.81,39l0-.19c-.44.3-.88.59-1.29.92,0,0,.13.31.24.57Z"/><path class="cls-1" d="M46.94,179.63c-1.14,0-1.14,0-1.08-1.08,0-.42,0-.83.09-1.3,1,0,1.67,1.31,2.77.56.35-.78,0-1.87,1.09-2.43-.41,1.74-.81,3.5-1.25,5.24-.06.23-.43.61-.56.57-.35-.08-.88-.06-.9-.67A6.47,6.47,0,0,0,46.94,179.63Z"/><path class="cls-1" d="M45.15,176.58l-.94,4.74-.14,0c-.1-.35-.2-.7-.32-1.1-.59.08-.71-.27-.7-.85a3.05,3.05,0,0,0-.32-1l.59-.95.49.44c.09-.9-.43-.86-1-.71,0-.1,0-.19,0-.28Z"/><path class="cls-1" d="M177.24,62c.22-1.07.42-2.15.66-3.21,0-.12.36-.3.42-.26.25.17.64.42.64.64a13.37,13.37,0,0,1-.23,2.08c-.06.39-.2.76-.23,1.15s-.15.81-.64.79-.53-.47-.55-.87V62Z"/><path class="cls-1" d="M120.19,151.34a5.8,5.8,0,0,1,0,1.32c-.06.3-.36.54-.55.81-.18-.23-.49-.45-.51-.68-.08-1.19-.09-2.39-.1-3.59,0-.12.16-.35.22-.35.21,0,.52.07.6.22a2.74,2.74,0,0,1,.3,1,10.41,10.41,0,0,1,0,1.25Z"/><path class="cls-1" d="M63.23,178.8l1.42,1.49-1,2.3a1.09,1.09,0,0,1-.92-1.26c.05-.89,0-1.77,0-2.78.26.13.38.2.5.27Z"/><path class="cls-1" d="M46.78,127.74c-.84-.35-1-.82-.75-1.34a19.7,19.7,0,0,1,1-2.17.7.7,0,0,1,.62-.28c.22.09.54.46.49.59C47.76,125.62,47.26,126.68,46.78,127.74Z"/><path class="cls-1" d="M33,57.93c.88.53.55,1.27.7,1.86s.23.88.31,1.33a1.74,1.74,0,0,1,0,.9c-.11.26-.43.43-.66.64-.16-.26-.42-.51-.45-.78-.09-.9-.13-1.8-.14-2.71A9,9,0,0,1,33,57.93Z"/><path class="cls-1" d="M162.66,45c1,.06,2.34,2.51,2.55,4.25-.54.11-.94,0-1.15-.58C163.63,47.42,163.16,46.25,162.66,45Z"/><path class="cls-1" d="M275.74,176c-.5.42-.9.27-1.14-.19-.42-.8-.79-1.63-1.15-2.46-.07-.17,0-.41,0-.62a1.94,1.94,0,0,1,.78.15,1.6,1.6,0,0,1,.46.71C275.07,174.34,275.39,175.14,275.74,176Z"/><path class="cls-1" d="M135.72,131.19c.3.27.5.38.58.55.45.94.88,1.89,1.27,2.86.05.1-.14.37-.28.46a.49.49,0,0,1-.47,0,1.84,1.84,0,0,1-.44-.63c-.32-.83-.62-1.66-.88-2.5C135.45,131.73,135.61,131.51,135.72,131.19Z"/><path class="cls-1" d="M214.73,132.1a1.77,1.77,0,0,1,.47.27,4.28,4.28,0,0,1,.07,3,1,1,0,0,1-.7.2c-.09,0-.24-.32-.24-.49A5.27,5.27,0,0,1,214.73,132.1Z"/><path class="cls-1" d="M264,111.46a2.07,2.07,0,0,1,.5,0,4.27,4.27,0,0,1,2,3c0,.15-.22.39-.35.4s-.59-.08-.67-.23C265,113.62,264.54,112.58,264,111.46Z"/><path class="cls-1" d="M172,107.37c.36.27.67.39.76.6.37.92.71,1.85,1,2.8a.6.6,0,0,1-.27.53.58.58,0,0,1-.55-.2A6.5,6.5,0,0,1,172,107.37Z"/><path class="cls-1" d="M68.18,183.63l.37.35c0,.23.13.62,0,.67-.58.36-.53.93-.63,1.47a1.07,1.07,0,0,1-.17.51,3.09,3.09,0,0,1-.55.4,2.26,2.26,0,0,1-.16-.59c0-.84.07-1.67.11-2.51,0-.24,0-.48.09-.88Z"/><path class="cls-1" d="M179,65.27c1.07.1,1.25.34,1.11,1.24-.08.49-.08,1-.18,1.48,0,.2-.25.38-.39.57-.24-.23-.68-.44-.69-.67A25.57,25.57,0,0,1,179,65.27Z"/><path class="cls-1" d="M77.87,65.85c.27,1.33.56,2.66.79,4,0,.14-.23.45-.37.46s-.62-.13-.63-.24c-.12-1.39-.18-2.78-.25-4.17Z"/><path class="cls-1" d="M287.19,147.31c.7.32,1.21.64,1.24,1.46,0,.48.25.95.3,1.43a2.52,2.52,0,0,1-.22.81,2.36,2.36,0,0,1-.59-.43A4.63,4.63,0,0,1,287.19,147.31Z"/><path class="cls-1" d="M146.38,51.19c.71-.21,1.05,0,1.16.47a19.67,19.67,0,0,1,.3,2c0,.11-.24.38-.3.36-.25-.08-.63-.2-.68-.39C146.65,52.84,146.53,52,146.38,51.19Z"/><path class="cls-1" d="M135,88.62c.15.11.28.16.3.24.28.92.55,1.85.79,2.78,0,.1-.2.37-.3.37s-.55-.11-.59-.24a24.55,24.55,0,0,1-.53-2.55C134.62,89.05,134.84,88.84,135,88.62Z"/><path class="cls-1" d="M164.73,89.43l1.29.25-1.17-2.14.24-.17c.44.29,1,.45,1,1.17,0,.37.34.73.36,1.1.05.84-.52,1.16-1.24.7a3.89,3.89,0,0,1-.66-.78Z"/><path class="cls-1" d="M31.83,153.07a2.81,2.81,0,0,1,0-3,.56.56,0,0,1,.86.33A7.57,7.57,0,0,1,31.83,153.07Z"/><path class="cls-1" d="M89.47,149.64a6.82,6.82,0,0,1,2.2,3,.43.43,0,0,1-.16.37.62.62,0,0,1-.49-.09,11.79,11.79,0,0,1-.76-1.09c-.31-.47-.64-.95-.92-1.45a2,2,0,0,1-.12-.62Z"/><path class="cls-1" d="M108.84,174.9a3.6,3.6,0,0,1-1-.72c-.33-.49,0-.91.55-.88.23,0,.49.12.68,0,.72-.23.75.37.83.72s-.15.74-.67.67a1.09,1.09,0,0,0-.31,0A1.13,1.13,0,0,0,108.84,174.9Z"/><path class="cls-1" d="M99.72,40.73c1.11.8.66,1.8.67,2.71,0,.09-.32.28-.41.24s-.54-.3-.53-.44C99.49,42.4,99.62,41.57,99.72,40.73Z"/><path class="cls-1" d="M223.08,93.12c.75-.19,1.21.08,1.26.72a3.45,3.45,0,0,1,0,.85,3.6,3.6,0,0,1-.3.7c-.27-.19-.7-.35-.77-.6A7.77,7.77,0,0,1,223.08,93.12Z"/><path class="cls-1" d="M143.05,157.56a4.08,4.08,0,0,1,1,.6,2.19,2.19,0,0,1,.53,1c.05.25-.07.72-.25.8a.56.56,0,0,1-.86-.45,14.19,14.19,0,0,0-.6-1.73Z"/><path class="cls-1" d="M90.18,130.17c-.79.43-.47,2.06-2.07,1.54a15.18,15.18,0,0,1,.92-1.85C89.45,129.23,89.75,129.75,90.18,130.17Z"/><path class="cls-1" d="M291.8,157.24c.29.15.66.22.86.45a4.39,4.39,0,0,1,.75,1.27.66.66,0,0,1-.22.63.71.71,0,0,1-.67-.19c-.35-.63-.61-1.3-.9-2Z"/><path class="cls-1" d="M197.39,44.8a4.59,4.59,0,0,1,.8.86,2.68,2.68,0,0,1,.27,1.13,2,2,0,0,1-.19.67c-.22-.12-.55-.2-.62-.37-.26-.67-.43-1.36-.63-2.05Z"/><path class="cls-1" d="M91,148.23a.77.77,0,0,1,.92.82,6.7,6.7,0,0,0,.19.74,5.4,5.4,0,0,1,0,.56c-.24,0-.56,0-.69-.15A1.88,1.88,0,0,1,91,148.23Z"/><path class="cls-1" d="M163.43,38.93c1.4.16,1.09,1.42,1.66,2.12C164,41.14,163.64,40.63,163.43,38.93Z"/><path class="cls-1" d="M94.28,16.07a19.93,19.93,0,0,1,.42,2c0,.11-.35.36-.56.39s-.39-.3-.39-.47c0-.62.06-1.24.09-1.86Z"/><path class="cls-1" d="M56.21,155.65c-.31.45-.53.77-.74,1.09-.2-.32-.54-.64-.55-1s.32-.65.5-1Z"/><path class="cls-1" d="M280.17,107.2c.74-.18,1.09.13,1.74,1.55-.59.49-1,.1-1.25-.36A7.75,7.75,0,0,1,280.17,107.2Z"/><path class="cls-1" d="M33.88,121.15a1.54,1.54,0,0,1,.42,2.06C33.35,123,33.16,122.13,33.88,121.15Z"/><path class="cls-1" d="M243,76.36c.55-.13.93-.38,1,.33,0,.25.42.44.54.71s0,.45-.05.67c-.22-.07-.52-.08-.63-.23A15,15,0,0,1,243,76.36Z"/><path class="cls-1" d="M147.61,72.33c-.14-.19-.41-.39-.39-.57a3.47,3.47,0,0,1,.37-.93c.16.12.4.22.45.37a6,6,0,0,1,.24,1.19,2.11,2.11,0,0,1-.06.66s-.22,0-.34,0c0-.21-.06-.42-.08-.63a1.77,1.77,0,0,1,0-.23Z"/><path class="cls-1" d="M258.24,152.76c-.77.33-1.3.11-1.36-.63,0-.24.19-.5.29-.76.28.15.64.24.81.47A2.66,2.66,0,0,1,258.24,152.76Z"/><path class="cls-1" d="M180.5,96.09c.73.42,1.25.74,1.16,1.48,0,.17-.22.46-.35.47s-.55-.15-.6-.3A10.49,10.49,0,0,1,180.5,96.09Z"/><path class="cls-1" d="M239.51,102.87c-.84.4-1.37,0-1.61-1.23C238.72,101.41,238.93,101.57,239.51,102.87Z"/><path class="cls-1" d="M173.21,113.76c-1,.28-1.36-.55-2-.9C172,112.47,172.71,112.78,173.21,113.76Z"/><path class="cls-1" d="M267.08,112.65c-1.18,0-.93-1-1.2-1.59C266.7,111,267.09,111.52,267.08,112.65Z"/><path class="cls-1" d="M97.07,146.55c.33.28.67.42.69.61a3.18,3.18,0,0,1-.15,1.13c0,.05-.33.1-.41,0s-.37-.34-.38-.53A6.38,6.38,0,0,1,97.07,146.55Z"/><path class="cls-1" d="M214,37.85c.85.09,1.52.84,1.42,1.32,0,.1-.15.26-.22.25s-.41-.05-.48-.17C214.46,38.86,214.28,38.43,214,37.85Z"/><path class="cls-1" d="M33.15,63.48a8.9,8.9,0,0,1,.18,1.13,2.45,2.45,0,0,1-.15.65c-.25-.08-.6-.1-.72-.28a.88.88,0,0,1,0-.74A4.19,4.19,0,0,1,33.15,63.48Z"/><path class="cls-1" d="M175.18,36.13c.87.15.95.79,1,1.48C175.3,37.7,174.92,37.12,175.18,36.13Z"/><path class="cls-1" d="M78,123.57l.69-1.21a3.82,3.82,0,0,1,.32,1.1c0,.25-.27.5-.42.75Z"/><path class="cls-1" d="M199.24,40.15c-.5.19-1,.39-1.28-.32-.06-.17.13-.62.24-.63C198.84,39.12,199.23,39.42,199.24,40.15Z"/><path class="cls-1" d="M59,129.92c.7.66.45,1.42.4,2.19C58.68,131.89,58.55,131,59,129.92Z"/><path class="cls-1" d="M151.57,112.14c.74.43,1,.83.9,1.44a.7.7,0,0,1-.4.39c-.07,0-.32-.18-.35-.3C151.64,113.22,151.63,112.76,151.57,112.14Z"/><path class="cls-1" d="M233.92,37.72l1.22,2.1C234.39,40,234.39,40,233.92,37.72Z"/><path class="cls-1" d="M163.27,51.07c-.6.11-1,0-1.12-.64a.62.62,0,0,1,.4-.46C163.22,50,163.43,50.37,163.27,51.07Z"/><path class="cls-1" d="M233.32,161.09a3.29,3.29,0,0,1-1-.24c-.15-.09-.17-.44-.18-.68,0-.06.33-.22.41-.17a8.92,8.92,0,0,1,.92.7Z"/><path class="cls-1" d="M151.48,108.33a1.47,1.47,0,0,1-.38-1.82C151.72,107,151.72,107,151.48,108.33Z"/><path class="cls-1" d="M198.69,38.07c-.7.14-.83-.4-1.06-.76,0-.06.22-.39.26-.37a1.39,1.39,0,0,1,.7.37C198.72,37.49,198.66,37.8,198.69,38.07Z"/><path class="cls-1" d="M282.8,104.11a6.38,6.38,0,0,1,.9.9c.09.11-.1.41-.16.63-.18-.1-.44-.16-.53-.32a6.89,6.89,0,0,1-.41-1C282.67,104.24,282.74,104.18,282.8,104.11Z"/><path class="cls-1" d="M44.91,126.13l.7.59c-.18.27-.35.52-.53.76C44.22,127,44.19,126.8,44.91,126.13Z"/><path class="cls-1" d="M96.37,80.93c-.5.39-1,.6-1.42.14-.08-.07,0-.49.12-.55C95.6,80.24,96,80.53,96.37,80.93Z"/><path class="cls-1" d="M22.89,178c-.77.26-1,0-.95-.48,0-.26.3-.5.46-.74Z"/><path class="cls-1" d="M60.24,66.77a9.45,9.45,0,0,1,.66,1.16s-.29.24-.45.37a8.45,8.45,0,0,1-.59-1C59.82,67.23,60,67.06,60.24,66.77Z"/><path class="cls-1" d="M290,151.86c.48-.3.92-.42,1.23.12a.57.57,0,0,1-.13.56C290.47,152.85,290.32,152.28,290,151.86Z"/><path class="cls-1" d="M136.06,122.53l.64-.5c.15.23.4.45.43.7s-.27.35-.42.54Z"/><path class="cls-1" d="M245.05,80.43c.7-.11.94.29,1,.81,0,.11-.29.38-.39.36C245.1,81.43,245,81,245.05,80.43Z"/><path class="cls-1" d="M221.64,97.14a.79.79,0,0,1,1.2.39c.06.12,0,.31,0,.47l-1.28-.56Z"/><path class="cls-1" d="M33.81,152.41c-.85-.23-1-.51-.56-1.45.32.5.56.89.8,1.28Z"/><path class="cls-1" d="M135.19,95.66c-.19,0-.34.11-.38.08A8.2,8.2,0,0,1,134,95s.15-.22.23-.33l.76.67A2.55,2.55,0,0,1,135.19,95.66Z"/><path class="cls-1" d="M289.11,154.2l-1.12-.71c.86-.55,1.18-.38,1.31.47Z"/><path class="cls-1" d="M104,144.13l1,0c0,.22-.06.45-.08.68l-.95-.18C103.94,144.43,104,144.28,104,144.13Z"/><path class="cls-1" d="M54.64,156.58c1,.37.27.89.22,1.48C54.09,157.57,54.4,157.09,54.64,156.58Z"/><path class="cls-1" d="M220.22,77.65c.27.3.55.6.83.89l-.12.25c-.2,0-.5,0-.59-.08a3.61,3.61,0,0,1-.42-.86Z"/><path class="cls-1" d="M232.56,35.08l1.18.74C233.12,36.33,232.82,36.17,232.56,35.08Z"/><path class="cls-1" d="M97.46,14.5c0,.38.09.76.15,1.27l-.84-.23c.13-.37.25-.71.36-1Z"/><path class="cls-1" d="M44.42,130.45l.1-1.11,1,.47-.83.75Z"/><path class="cls-1" d="M242.19,78.71l1,.43c-.1.16-.25.45-.3.44a8,8,0,0,1-.9-.41Z"/><path class="cls-1" d="M257.69,145.27c.6-.25,1.05-.37,1.28.35C258.42,146,258,145.88,257.69,145.27Z"/><path class="cls-1" d="M244,69.53l-1.37-.28c.64-.59.88-.57,1.41,0C244,69.33,244,69.43,244,69.53Z"/><path class="cls-1" d="M60.8,69.42a8.76,8.76,0,0,1,.31,1,4.89,4.89,0,0,1-.51.2c-.07-.34-.14-.67-.22-1Z"/><path class="cls-1" d="M231.52,37.41l.95.75c-.14.11-.29.32-.42.32C231.59,38.45,231.4,38.16,231.52,37.41Z"/><path class="cls-1" d="M31.62,159.37c.05.33.11.66.16,1a1.87,1.87,0,0,1-.44,0c-.1-.31-.16-.63-.23-.95Z"/><path class="cls-1" d="M117.73,128.21c.36-.17.53-.33.68-.3a2.13,2.13,0,0,1,.63.3c-.13.14-.26.4-.38.38A3.58,3.58,0,0,1,117.73,128.21Z"/><path class="cls-1" d="M119.71,154.75l.49-.85c.13.15.39.31.38.45C120.55,154.75,120.36,155.06,119.71,154.75Z"/><path class="cls-1" d="M107.46,172.44c-.32-.55-.86-.85-.35-1.42C107.8,171.31,107.63,171.79,107.46,172.44Z"/><path class="cls-1" d="M146.81,56.08c-.34.72-.67.53-1,.27-.08-.07,0-.27,0-.41Z"/><path class="cls-1" d="M60,133.7c-.62-.23-.65-.6-.34-1.15C60.08,132.86,60.51,133.09,60,133.7Z"/><path class="cls-1" d="M80,67.87a3.87,3.87,0,0,1-.53-.62s.22-.24.33-.36l.53.67Z"/><path class="cls-1" d="M96,9.86a1.85,1.85,0,0,1,.24.68c0,.1-.34.19-.52.28L95.52,10Z"/><path class="cls-1" d="M180.32,61.6l-.87-.52c.09-.12.25-.37.26-.36.29.16.56.35.83.53Z"/><path class="cls-1" d="M86.12,175c.06.34.12.69.17,1l-.34.08-.3-1Z"/><path class="cls-1" d="M214.46,140.48l-.52-.59c.16-.1.35-.31.45-.27a1.83,1.83,0,0,1,.54.43C214.8,140.17,214.68,140.29,214.46,140.48Z"/><path class="cls-1" d="M55,161.92c-.22.14-.41.34-.48.3a1.33,1.33,0,0,1-.5-.47c0-.05.21-.27.34-.41Z"/><path class="cls-1" d="M65.69,186.32l-.54-.52c.15-.14.3-.4.44-.4a.64.64,0,0,1,.45.4C66.08,185.9,65.85,186.09,65.69,186.32Z"/><path class="cls-1" d="M198.15,94l1.73-.32c-.19.71-.35,1.34-.52,2l-.33,0C198.76,95.22,198.5,94.7,198.15,94Z"/><path class="cls-1" d="M193.54,89a13.57,13.57,0,0,1,1,1.06c.08.12,0,.36,0,.55-.22,0-.55,0-.63-.1a10.46,10.46,0,0,1-.66-1.24Z"/><path class="cls-1" d="M201.64,126.85c1.07.1,1.86,1.36,1.54,2.08a.56.56,0,0,1-.43.27c-.16,0-.43-.13-.48-.27C202,128.29,201.87,127.63,201.64,126.85Z"/><path class="cls-1" d="M200.06,149.48l-.82.74a5.62,5.62,0,0,1-.65-.91c0-.06.38-.48.52-.45S199.63,149.18,200.06,149.48Z"/><path class="cls-1" d="M203.51,131.59l-1-.37.12-.35,1.07.32C203.6,131.32,203.56,131.46,203.51,131.59Z"/><path class="cls-1" d="M197.33,152l-1-.19c.49-.81.77-.35,1.08,0C197.36,151.8,197.34,151.88,197.33,152Z"/><path class="cls-1" d="M188.33,130.66l.64-1.73c.18.68.31,1.17.45,1.73Z"/><path class="cls-1" d="M74.84,47.41c.08-.67.14-1.35.26-2,0-.2.24-.38.37-.56.2.18.56.37.57.55a22.63,22.63,0,0,1-.12,3c0,.2-.48.35-.73.52A4.23,4.23,0,0,1,75,48.2a4.06,4.06,0,0,1,0-.78Z"/><path class="cls-1" d="M73.79,49.65c-.23-.34-.44-.51-.44-.67a10.47,10.47,0,0,1,.23-1.76c0-.2.35-.34.53-.51a2.29,2.29,0,0,1,.23.63,6.36,6.36,0,0,1-.07,1.38A3.93,3.93,0,0,1,73.79,49.65Z"/><path class="cls-1" d="M74.09,52.3a5.45,5.45,0,0,1-.71.73s-.46-.22-.48-.37S73,52,73.15,52s.57,0,.87.07A2.33,2.33,0,0,0,74.09,52.3Z"/><path class="cls-1" d="M166.5,142.14c.81,0,.81,0,1.78,1.76-.31,0-.6.15-.79,0A2.06,2.06,0,0,1,166.5,142.14Z"/><path class="cls-1" d="M47.42,72.69a14.14,14.14,0,0,1-.26-4.57C47.84,68.81,48,71.92,47.42,72.69Z"/><path class="cls-1" d="M48.12,71c1.32.33.89,1.29,1.27,2a3.48,3.48,0,0,1-.86,0C48.36,72.44,48.26,71.81,48.12,71Z"/></svg>